<svg width="1280" height="454" xmlns="http://www.w3.org/2000/svg" xmlns:xlink="http://www.w3.org/1999/xlink" overflow="hidden"><defs><clipPath id="clip0"><rect x="0" y="0" width="1280" height="454"/></clipPath></defs><g clip-path="url(#clip0)"><rect x="0" y="0" width="1280" height="454.501" fill="#FFFFFF" fill-opacity="0"/><path d="M71 228.251C71 200.054 92.938 177.195 120 177.195 147.062 177.195 169 200.054 169 228.251 169 256.449 147.062 279.308 120 279.308 92.938 279.308 71 256.449 71 228.251Z" fill="#549E39" fill-rule="evenodd"/><text fill="#FFFFFF" font-family="Calibri,Calibri_MSFontService,sans-serif" font-weight="400" font-size="42.7137" transform="matrix(1 0 0 1.0011 90.2181 233)">Arg</text><path d="M170 228.251C170 200.054 191.938 177.195 219 177.195 246.062 177.195 268 200.054 268 228.251 268 256.449 246.062 279.308 219 279.308 191.938 279.308 170 256.449 170 228.251Z" fill="#549E39" fill-rule="evenodd"/><text fill="#FFFFFF" font-family="Calibri,Calibri_MSFontService,sans-serif" font-weight="400" font-size="42.7137" transform="matrix(1 0 0 1.0011 189.397 233)">Arg</text><path d="M268 228.251C268 200.054 289.938 177.195 317 177.195 344.062 177.195 366 200.054 366 228.251 366 256.449 344.062 279.308 317 279.308 289.938 279.308 268 256.449 268 228.251Z" fill="#0070C0" fill-rule="evenodd"/><text fill="#FFFFFF" font-family="Calibri,Calibri_MSFontService,sans-serif" font-weight="400" font-size="42.7137" transform="matrix(1 0 0 1.0011 287.116 233)">Gln</text><path d="M367 228.251C367 200.054 388.938 177.195 416 177.195 443.062 177.195 465 200.054 465 228.251 465 256.449 443.062 279.308 416 279.308 388.938 279.308 367 256.449 367 228.251Z" fill="#4AB5C4" fill-rule="evenodd"/><text fill="#FFFFFF" font-family="Calibri,Calibri_MSFontService,sans-serif" font-weight="400" font-size="42.7137" transform="matrix(1 0 0 1.0011 387.878 233)">Gly</text><path d="M465 228.251C465 200.054 487.162 177.195 514.5 177.195 541.838 177.195 564 200.054 564 228.251 564 256.449 541.838 279.308 514.5 279.308 487.162 279.308 465 256.449 465 228.251Z" fill="#E6801A" fill-rule="evenodd"/><text fill="#FFFFFF" font-family="Calibri,Calibri_MSFontService,sans-serif" font-weight="400" font-size="42.7137" transform="matrix(1 0 0 1.0011 485.324 233)">Thr</text><path d="M956 228.251C956 200.054 977.938 177.195 1005 177.195 1032.06 177.195 1054 200.054 1054 228.251 1054 256.449 1032.06 279.308 1005 279.308 977.938 279.308 956 256.449 956 228.251Z" fill="#D9558E" fill-rule="evenodd"/><text fill="#FFFFFF" font-family="Calibri,Calibri_MSFontService,sans-serif" font-weight="400" font-size="42.7137" transform="matrix(1 0 0 1.0011 977.136 233)">Ser</text><path d="M661 228.251C661 200.054 682.938 177.195 710 177.195 737.062 177.195 759 200.054 759 228.251 759 256.449 737.062 279.308 710 279.308 682.938 279.308 661 256.449 661 228.251Z" fill="#549E39" fill-rule="evenodd"/><text fill="#FFFFFF" font-family="Calibri,Calibri_MSFontService,sans-serif" font-weight="400" font-size="42.7137" transform="matrix(1 0 0 1.0011 680.603 233)">Arg</text><path d="M759 228.251C759 200.054 780.938 177.195 808 177.195 835.062 177.195 857 200.054 857 228.251 857 256.449 835.062 279.308 808 279.308 780.938 279.308 759 256.449 759 228.251Z" fill="#0070C0" fill-rule="evenodd"/><text fill="#FFFFFF" font-family="Calibri,Calibri_MSFontService,sans-serif" font-weight="400" font-size="42.7137" transform="matrix(1 0 0 1.0011 778.322 233)">Gln</text><path d="M857 228.251C857 200.054 879.162 177.195 906.5 177.195 933.838 177.195 956 200.054 956 228.251 956 256.449 933.838 279.308 906.5 279.308 879.162 279.308 857 256.449 857 228.251Z" fill="#E6801A" fill-rule="evenodd"/><text fill="#FFFFFF" font-family="Calibri,Calibri_MSFontService,sans-serif" font-weight="400" font-size="42.7137" transform="matrix(1 0 0 1.0011 877.351 233)">Thr</text><path d="M563 228.251C563 200.054 584.938 177.195 612 177.195 639.062 177.195 661 200.054 661 228.251 661 256.449 639.062 279.308 612 279.308 584.938 279.308 563 256.449 563 228.251Z" fill="#4AB5C4" fill-rule="evenodd"/><text fill="#FFFFFF" font-family="Calibri,Calibri_MSFontService,sans-serif" font-weight="400" font-size="42.7137" transform="matrix(1 0 0 1.0011 583.57 233)">Gly</text><path d="M1054 228.251C1054 200.054 1075.94 177.195 1103 177.195 1130.06 177.195 1152 200.054 1152 228.251 1152 256.449 1130.06 279.308 1103 279.308 1075.94 279.308 1054 256.449 1054 228.251Z" fill="#D9558E" fill-rule="evenodd"/><text fill="#FFFFFF" font-family="Calibri,Calibri_MSFontService,sans-serif" font-weight="400" font-size="42.7137" transform="matrix(1 0 0 1.0011 1074.98 233)">Ser</text></g></svg>