<svg width="1280" height="454" xmlns="http://www.w3.org/2000/svg" xmlns:xlink="http://www.w3.org/1999/xlink" overflow="hidden"><defs><clipPath id="clip0"><rect x="0" y="0" width="1280" height="454"/></clipPath></defs><g clip-path="url(#clip0)"><rect x="0" y="0" width="1280" height="454.501" fill="#FFFFFF" fill-opacity="0"/><path d="M210 108.119 210 165.182C210 196.697 192.987 222.245 172 222.245 151.013 222.245 134 196.697 134 165.182L134 108.119Z" fill="#549E39" fill-rule="evenodd"/><text fill="#FFFFFF" font-family="Calibri,Calibri_MSFontService,sans-serif" font-weight="400" font-size="53.3921" transform="matrix(1 0 0 1.0011 159.002 175)">T</text><rect x="134" y="107.118" width="76" height="17.0187" fill="#595959"/><path d="M295 127.14 295 222.245C295 211.74 278.211 203.224 257.5 203.224 236.789 203.224 220 211.74 220 222.245L220 127.14C220 116.635 236.789 108.119 257.5 108.119 278.211 108.119 295 116.635 295 127.14Z" fill="#7030A0" fill-rule="evenodd"/><text fill="#FFFFFF" font-family="Calibri,Calibri_MSFontService,sans-serif" font-weight="400" font-size="53.3921" transform="matrix(1 0 0 1.0011 242.155 168)">A</text><rect x="220" y="107.118" width="75" height="17.0187" fill="#595959"/><path d="M381 108.119 381 198.965 343 222.245 305 198.965 305 108.119Z" fill="#09B3FF" fill-rule="evenodd"/><text fill="#FFFFFF" font-family="Calibri,Calibri_MSFontService,sans-serif" font-weight="400" font-size="53.3921" transform="matrix(1 0 0 1.0011 328.892 178)">C</text><rect x="305" y="107.118" width="76" height="17.0187" fill="#595959"/><path d="M0 0 56.5 0C87.7041-9.67581e-15 113 17.0132 113 38 113 58.9868 87.7041 76 56.5 76L0 76Z" fill="#549E39" fill-rule="evenodd" transform="matrix(-1.83697e-16 -1.0011 -1 1.839e-16 295 343.378)"/><text fill="#FFFFFF" font-family="Calibri,Calibri_MSFontService,sans-serif" font-weight="400" font-size="53.3921" transform="matrix(1 0 0 1.0011 244.257 303)">T</text><rect x="0" y="0" width="76" height="17" fill="#595959" transform="matrix(1 0 0 -1.0011 219 344.379)"/><path d="M18.8333 0 113 0C102.599 2.25005e-14 94.1667 17.0132 94.1667 38 94.1667 58.9868 102.599 76 113 76L18.8333 76C8.43197 76-2.09092e-15 58.9868-2.09092e-15 38-2.09092e-15 17.0132 8.43197 1.68754e-14 18.8333 5.62513e-15Z" fill="#7030A0" fill-rule="evenodd" transform="matrix(-1.83697e-16 -1.0011 -1 1.839e-16 210 342.377)"/><text fill="#FFFFFF" font-family="Calibri,Calibri_MSFontService,sans-serif" font-weight="400" font-size="53.3921" transform="matrix(1 0 0 1.0011 156.585 302)">A</text><rect x="0" y="0" width="76" height="17" fill="#595959" transform="matrix(1 0 0 -1.0011 134 343.378)"/><path d="M0 0 94.5637 0 110 38.0001 94.5637 76 0 76 15.4363 38.0001Z" fill="#EE3041" fill-rule="evenodd" transform="matrix(6.12323e-17 1.0011 1 -6.12999e-17 305 232.256)"/><text fill="#FFFFFF" font-family="Calibri,Calibri_MSFontService,sans-serif" font-weight="400" font-size="53.3921" transform="matrix(1 -2.4547e-16 2.4466e-16 1.0011 326.308 305)">G</text><rect x="0" y="0" width="76" height="16" fill="#595959" transform="matrix(1 0 0 -1.0011 305 343.378)"/><path d="M18.8333 0 113 0C102.599 2.25005e-14 94.1667 17.0132 94.1667 38 94.1667 58.9868 102.599 76 113 76L18.8333 76C8.43197 76-2.09092e-15 58.9868-2.09092e-15 38-2.09092e-15 17.0132 8.43197 1.68754e-14 18.8333 5.62513e-15Z" fill="#7030A0" fill-rule="evenodd" transform="matrix(-1.83697e-16 -1.0011 -1 1.839e-16 468 342.377)"/><text fill="#FFFFFF" font-family="Calibri,Calibri_MSFontService,sans-serif" font-weight="400" font-size="53.3921" transform="matrix(1 0 0 1.0011 414.432 303)">A</text><rect x="0" y="0" width="76" height="17" fill="#595959" transform="matrix(1 0 0 -1.0011 392 343.378)"/><path d="M479 343.378 479 253.227 516.5 230.254 554 253.227 554 343.378Z" fill="#09B3FF" fill-rule="evenodd"/><text fill="#FFFFFF" font-family="Calibri,Calibri_MSFontService,sans-serif" font-weight="400" font-size="53.3921" transform="matrix(1 -2.4547e-16 2.4466e-16 1.0011 502.131 299)">C</text><rect x="479" y="327.361" width="75" height="17.0187" fill="#595959"/><path d="M0 0 94.7667 0 110 37.5 94.7667 75 0 75 15.2333 37.5Z" fill="#EE3041" fill-rule="evenodd" transform="matrix(-1.83697e-16 -1.0011 -1 1.839e-16 554 219.241)"/><text fill="#FFFFFF" font-family="Calibri,Calibri_MSFontService,sans-serif" font-weight="400" font-size="53.3921" transform="matrix(1 0 0 1.0011 499.548 169)">G</text><rect x="0" y="0" width="75" height="16" fill="#595959" transform="matrix(-1 1.226e-16 1.22465e-16 1.0011 554 108.119)"/><path d="M468 109.12 468 166.183C468 197.698 450.987 223.246 430 223.246 409.013 223.246 392 197.698 392 166.183L392 109.12Z" fill="#549E39" fill-rule="evenodd"/><text fill="#FFFFFF" font-family="Calibri,Calibri_MSFontService,sans-serif" font-weight="400" font-size="53.3921" transform="matrix(1 0 0 1.0011 416.882 176)">T</text><rect x="392" y="108.119" width="76" height="17.0187" fill="#595959"/><path d="M0 0 56.5 0C87.7041-9.5485e-15 113 16.7893 113 37.5 113 58.2107 87.7041 75 56.5 75L0 75Z" fill="#549E39" fill-rule="evenodd" transform="matrix(-1.83697e-16 -1.0011 -1 1.839e-16 640 342.377)"/><text fill="#FFFFFF" font-family="Calibri,Calibri_MSFontService,sans-serif" font-weight="400" font-size="53.3921" transform="matrix(1 0 0 1.0011 589.298 301)">T</text><rect x="0" y="0" width="75" height="17" fill="#595959" transform="matrix(1 0 0 -1.0011 565 343.378)"/><path d="M0 0 94.5637 0 110 38.0001 94.5637 76 0 76 15.4363 38.0001Z" fill="#EE3041" fill-rule="evenodd" transform="matrix(6.12323e-17 1.0011 1 -6.12999e-17 650 232.256)"/><text fill="#FFFFFF" font-family="Calibri,Calibri_MSFontService,sans-serif" font-weight="400" font-size="53.3921" transform="matrix(1 -2.4547e-16 2.4466e-16 1.0011 671.35 305)">G</text><rect x="0" y="0" width="76" height="16" fill="#595959" transform="matrix(1 0 0 -1.0011 650 343.378)"/><path d="M18.8333 0 113 0C102.599 2.25005e-14 94.1667 17.0132 94.1667 38 94.1667 58.9868 102.599 76 113 76L18.8333 76C8.43197 76-2.09092e-15 58.9868-2.09092e-15 38-2.09092e-15 17.0132 8.43197 1.68754e-14 18.8333 5.62513e-15Z" fill="#7030A0" fill-rule="evenodd" transform="matrix(-1.83697e-16 -1.0011 -1 1.839e-16 813 341.376)"/><text fill="#FFFFFF" font-family="Calibri,Calibri_MSFontService,sans-serif" font-weight="400" font-size="53.3921" transform="matrix(1 0 0 1.0011 759.298 302)">A</text><rect x="0" y="0" width="76" height="17" fill="#595959" transform="matrix(1 0 0 -1.0011 737 342.377)"/><path d="M824 342.377 824 252.226 861.5 229.253 899 252.226 899 342.377Z" fill="#09B3FF" fill-rule="evenodd"/><text fill="#FFFFFF" font-family="Calibri,Calibri_MSFontService,sans-serif" font-weight="400" font-size="53.3921" transform="matrix(1 -2.4547e-16 2.4466e-16 1.0011 847.317 298)">C</text><rect x="824" y="326.359" width="75" height="17.0187" fill="#595959"/><path d="M0 0 56.5 0C87.7041-9.67581e-15 113 17.0132 113 38 113 58.9868 87.7041 76 56.5 76L0 76Z" fill="#549E39" fill-rule="evenodd" transform="matrix(-1.83697e-16 -1.0011 -1 1.839e-16 986 342.377)"/><text fill="#FFFFFF" font-family="Calibri,Calibri_MSFontService,sans-serif" font-weight="400" font-size="53.3921" transform="matrix(1 0 0 1.0011 934.757 302)">T</text><rect x="0" y="0" width="76" height="17" fill="#595959" transform="matrix(1 0 0 -1.0011 910 343.378)"/><path d="M0 0 94.7667 0 110 37.5 94.7667 75 0 75 15.2333 37.5Z" fill="#EE3041" fill-rule="evenodd" transform="matrix(6.12323e-17 1.0011 1 -6.12999e-17 997 232.256)"/><text fill="#FFFFFF" font-family="Calibri,Calibri_MSFontService,sans-serif" font-weight="400" font-size="53.3921" transform="matrix(1 -2.4547e-16 2.4466e-16 1.0011 1017.66 305)">G</text><rect x="0" y="0" width="75" height="16" fill="#595959" transform="matrix(1 0 0 -1.0011 997 343.378)"/><path d="M19 0 114 0C103.507 2.25005e-14 95 17.0132 95 38 95 58.9868 103.507 76 114 76L19 76C8.50659 76-2.10942e-15 58.9868-2.10942e-15 38-2.10942e-15 17.0132 8.50659 1.68754e-14 19 5.62513e-15Z" fill="#7030A0" fill-rule="evenodd" transform="matrix(-1.83697e-16 -1.0011 -1 1.839e-16 1159 343.378)"/><text fill="#FFFFFF" font-family="Calibri,Calibri_MSFontService,sans-serif" font-weight="400" font-size="53.3921" transform="matrix(1 0 0 1.0011 1105.42 303)">A</text><rect x="0" y="0" width="76" height="17" fill="#595959" transform="matrix(1 0 0 -1.0011 1083 344.379)"/><path d="M640 128.141 640 223.246C640 212.741 623.211 204.225 602.5 204.225 581.789 204.225 565 212.741 565 223.246L565 128.141C565 117.636 581.789 109.12 602.5 109.12 623.211 109.12 640 117.636 640 128.141Z" fill="#7030A0" fill-rule="evenodd"/><text fill="#FFFFFF" font-family="Calibri,Calibri_MSFontService,sans-serif" font-weight="400" font-size="53.3921" transform="matrix(1 0 0 1.0011 586.882 169)">A</text><rect x="565" y="108.119" width="75" height="17.0187" fill="#595959"/><path d="M725 109.12 725 200.273 687.5 223.246 650 200.273 650 109.12Z" fill="#09B3FF" fill-rule="evenodd"/><text fill="#FFFFFF" font-family="Calibri,Calibri_MSFontService,sans-serif" font-weight="400" font-size="53.3921" transform="matrix(1 0 0 1.0011 673.169 179)">C</text><rect x="650" y="108.119" width="75" height="17.0187" fill="#595959"/><path d="M813 109.12 813 166.183C813 197.698 795.987 223.246 775 223.246 754.013 223.246 737 197.698 737 166.183L737 109.12Z" fill="#549E39" fill-rule="evenodd"/><text fill="#FFFFFF" font-family="Calibri,Calibri_MSFontService,sans-serif" font-weight="400" font-size="53.3921" transform="matrix(1 0 0 1.0011 761.715 176)">T</text><rect x="737" y="108.119" width="76" height="17.0187" fill="#595959"/><path d="M0 0 94.7667 0 110 37.5 94.7667 75 0 75 15.2333 37.5Z" fill="#EE3041" fill-rule="evenodd" transform="matrix(-1.83697e-16 -1.0011 -1 1.839e-16 899 219.241)"/><text fill="#FFFFFF" font-family="Calibri,Calibri_MSFontService,sans-serif" font-weight="400" font-size="53.3921" transform="matrix(1 0 0 1.0011 844.734 169)">G</text><rect x="0" y="0" width="75" height="16" fill="#595959" transform="matrix(-1 1.226e-16 1.22465e-16 1.0011 899 108.119)"/><path d="M986 128.975 986 223.246C986 212.833 969.211 204.392 948.5 204.392 927.789 204.392 911 212.833 911 223.246L911 128.975C911 118.563 927.789 110.121 948.5 110.121 969.211 110.121 986 118.563 986 128.975Z" fill="#7030A0" fill-rule="evenodd"/><text fill="#FFFFFF" font-family="Calibri,Calibri_MSFontService,sans-serif" font-weight="400" font-size="53.3921" transform="matrix(1 0 0 1.0011 932.894 170)">A</text><rect x="911" y="109.12" width="75" height="17.0187" fill="#595959"/><path d="M1072 109.12 1072 200.273 1034.5 223.246 997 200.273 997 109.12Z" fill="#09B3FF" fill-rule="evenodd"/><text fill="#FFFFFF" font-family="Calibri,Calibri_MSFontService,sans-serif" font-weight="400" font-size="53.3921" transform="matrix(1 0 0 1.0011 1020.25 179)">C</text><rect x="997" y="108.119" width="75" height="17.0187" fill="#595959"/><path d="M1157 109.12 1157 166.183C1157 197.698 1140.21 223.246 1119.5 223.246 1098.79 223.246 1082 197.698 1082 166.183L1082 109.12Z" fill="#549E39" fill-rule="evenodd"/><text fill="#FFFFFF" font-family="Calibri,Calibri_MSFontService,sans-serif" font-weight="400" font-size="53.3921" transform="matrix(1 0 0 1.0011 1106.48 176)">T</text><rect x="1082" y="108.119" width="75" height="17.0187" fill="#595959"/><text font-family="Calibri,Calibri_MSFontService,sans-serif" font-weight="400" font-size="53.3921" transform="matrix(1 0 0 1.0011 82.4689 142)">5’</text><text font-family="Calibri,Calibri_MSFontService,sans-serif" font-weight="400" font-size="53.3921" transform="matrix(1 0 0 1.0011 1170.03 350)">5’</text><text font-family="Calibri,Calibri_MSFontService,sans-serif" font-weight="400" font-size="53.3921" transform="matrix(1 0 0 1.0011 83.4702 350)">3’</text><text font-family="Calibri,Calibri_MSFontService,sans-serif" font-weight="400" font-size="53.3921" transform="matrix(1 0 0 1.0011 1168.68 142)">3’</text></g></svg>