<?xml version="1.0" encoding="UTF-8" standalone="no"?>
<!-- Created with Inkscape (http://www.inkscape.org/) -->
<svg
   xmlns:svg="http://www.w3.org/2000/svg"
   xmlns="http://www.w3.org/2000/svg"
   version="1.0"
   width="297.60001"
   height="251.7"
   id="svg3299"
   xml:space="preserve"><defs
     id="defs3302" /><g
     transform="matrix(1.25,0,0,-1.25,0,251.7)"
     id="g3308"><path
       d="M 1.1601562,-8.3671875 C 1.1601551,-11.218739 1.9257793,-13.451158 3.4570312,-15.064453 C 4.9882763,-16.677718 6.9648368,-17.484358 9.3867188,-17.484375 C 10.972645,-17.484358 12.402331,-17.105452 13.675781,-16.347656 C 14.949204,-15.589828 15.919906,-14.533189 16.587891,-13.177734 C 17.255842,-11.822254 17.589826,-10.285146 17.589844,-8.5664062 C 17.589826,-6.8242119 17.238264,-5.2656197 16.535156,-3.890625 C 15.832015,-2.5156225 14.835923,-1.4746079 13.546875,-0.76757812 C 12.2578,-0.060546814 10.867177,0.29296846 9.375,0.29296875 C 7.7578047,0.29296846 6.3124937,-0.097656152 5.0390625,-0.87890625 C 3.7656212,-1.6601546 2.8007784,-2.7265598 2.1445312,-4.078125 C 1.4882798,-5.4296821 1.1601551,-6.8593681 1.1601562,-8.3671875 L 1.1601562,-8.3671875 z M 3.5039062,-8.3320312 C 3.5039027,-6.2617125 4.0605428,-4.6308547 5.1738281,-3.4394531 C 6.2871031,-2.2480446 7.6835861,-1.6523421 9.3632812,-1.6523438 C 11.074208,-1.6523421 12.482409,-2.253904 13.587891,-3.4570312 C 14.693345,-4.6601516 15.246079,-6.3671811 15.246094,-8.578125 C 15.246079,-9.9765525 15.009751,-11.197254 14.537109,-12.240234 C 14.064439,-13.28319 13.373034,-14.091783 12.462891,-14.666016 C 11.552723,-15.240219 10.531239,-15.527328 9.3984375,-15.527344 C 7.7890547,-15.527328 6.4042905,-14.974594 5.2441406,-13.869141 C 4.0839803,-12.763659 3.5039027,-10.917958 3.5039062,-8.3320312 L 3.5039062,-8.3320312 z"
       transform="matrix(1,0,0,-1,168.96,131.76)"
       id="text3310" /><path
       d="M 1.1601562,-8.3671875 C 1.1601551,-11.218739 1.9257793,-13.451158 3.4570312,-15.064453 C 4.9882763,-16.677718 6.9648368,-17.484358 9.3867188,-17.484375 C 10.972645,-17.484358 12.402331,-17.105452 13.675781,-16.347656 C 14.949204,-15.589828 15.919906,-14.533189 16.587891,-13.177734 C 17.255842,-11.822254 17.589826,-10.285146 17.589844,-8.5664062 C 17.589826,-6.8242119 17.238264,-5.2656197 16.535156,-3.890625 C 15.832015,-2.5156225 14.835923,-1.4746079 13.546875,-0.76757812 C 12.2578,-0.060546814 10.867177,0.29296846 9.375,0.29296875 C 7.7578047,0.29296846 6.3124937,-0.097656152 5.0390625,-0.87890625 C 3.7656212,-1.6601546 2.8007784,-2.7265598 2.1445312,-4.078125 C 1.4882798,-5.4296821 1.1601551,-6.8593681 1.1601562,-8.3671875 L 1.1601562,-8.3671875 z M 3.5039062,-8.3320312 C 3.5039027,-6.2617125 4.0605428,-4.6308547 5.1738281,-3.4394531 C 6.2871031,-2.2480446 7.6835861,-1.6523421 9.3632812,-1.6523438 C 11.074208,-1.6523421 12.482409,-2.253904 13.587891,-3.4570312 C 14.693345,-4.6601516 15.246079,-6.3671811 15.246094,-8.578125 C 15.246079,-9.9765525 15.009751,-11.197254 14.537109,-12.240234 C 14.064439,-13.28319 13.373034,-14.091783 12.462891,-14.666016 C 11.552723,-15.240219 10.531239,-15.527328 9.3984375,-15.527344 C 7.7890547,-15.527328 6.4042905,-14.974594 5.2441406,-13.869141 C 4.0839803,-12.763659 3.5039027,-10.917958 3.5039062,-8.3320312 L 3.5039062,-8.3320312 z"
       transform="matrix(1,0,0,-1,197.04,47.28)"
       id="text3314" /><path
       d="M 1.921875,0 L 1.921875,-17.179688 L 4.1953125,-17.179688 L 4.1953125,-10.125 L 13.125,-10.125 L 13.125,-17.179688 L 15.398438,-17.179688 L 15.398438,0 L 13.125,0 L 13.125,-8.0976562 L 4.1953125,-8.0976562 L 4.1953125,0 L 1.921875,0 z"
       transform="matrix(1,0,0,-1,215.76,47.28)"
       id="text3318" /><path
       d="M 1.1601562,-8.3671875 C 1.1601551,-11.218739 1.9257793,-13.451158 3.4570312,-15.064453 C 4.9882763,-16.677718 6.9648368,-17.484358 9.3867188,-17.484375 C 10.972645,-17.484358 12.402331,-17.105452 13.675781,-16.347656 C 14.949204,-15.589828 15.919906,-14.533189 16.587891,-13.177734 C 17.255842,-11.822254 17.589826,-10.285146 17.589844,-8.5664062 C 17.589826,-6.8242119 17.238264,-5.2656197 16.535156,-3.890625 C 15.832015,-2.5156225 14.835923,-1.4746079 13.546875,-0.76757812 C 12.2578,-0.060546814 10.867177,0.29296846 9.375,0.29296875 C 7.7578047,0.29296846 6.3124937,-0.097656152 5.0390625,-0.87890625 C 3.7656212,-1.6601546 2.8007784,-2.7265598 2.1445312,-4.078125 C 1.4882798,-5.4296821 1.1601551,-6.8593681 1.1601562,-8.3671875 L 1.1601562,-8.3671875 z M 3.5039062,-8.3320312 C 3.5039027,-6.2617125 4.0605428,-4.6308547 5.1738281,-3.4394531 C 6.2871031,-2.2480446 7.6835861,-1.6523421 9.3632812,-1.6523438 C 11.074208,-1.6523421 12.482409,-2.253904 13.587891,-3.4570312 C 14.693345,-4.6601516 15.246079,-6.3671811 15.246094,-8.578125 C 15.246079,-9.9765525 15.009751,-11.197254 14.537109,-12.240234 C 14.064439,-13.28319 13.373034,-14.091783 12.462891,-14.666016 C 11.552723,-15.240219 10.531239,-15.527328 9.3984375,-15.527344 C 7.7890547,-15.527328 6.4042905,-14.974594 5.2441406,-13.869141 C 4.0839803,-12.763659 3.5039027,-10.917958 3.5039062,-8.3320312 L 3.5039062,-8.3320312 z"
       transform="matrix(1,0,0,-1,22.08,49.92)"
       id="text3322" /><path
       d="M 1.921875,0 L 1.921875,-17.179688 L 4.1953125,-17.179688 L 4.1953125,-10.125 L 13.125,-10.125 L 13.125,-17.179688 L 15.398438,-17.179688 L 15.398438,0 L 13.125,0 L 13.125,-8.0976562 L 4.1953125,-8.0976562 L 4.1953125,0 L 1.921875,0 z"
       transform="matrix(1,0,0,-1,4.8,49.92)"
       id="text3326" /><path
       d="M 1.1601562,-8.3671875 C 1.1601551,-11.218739 1.9257793,-13.451158 3.4570312,-15.064453 C 4.9882763,-16.677718 6.9648368,-17.484358 9.3867188,-17.484375 C 10.972645,-17.484358 12.402331,-17.105452 13.675781,-16.347656 C 14.949204,-15.589828 15.919906,-14.533189 16.587891,-13.177734 C 17.255842,-11.822254 17.589826,-10.285146 17.589844,-8.5664062 C 17.589826,-6.8242119 17.238264,-5.2656197 16.535156,-3.890625 C 15.832015,-2.5156225 14.835923,-1.4746079 13.546875,-0.76757812 C 12.2578,-0.060546814 10.867177,0.29296846 9.375,0.29296875 C 7.7578047,0.29296846 6.3124937,-0.097656152 5.0390625,-0.87890625 C 3.7656212,-1.6601546 2.8007784,-2.7265598 2.1445312,-4.078125 C 1.4882798,-5.4296821 1.1601551,-6.8593681 1.1601562,-8.3671875 L 1.1601562,-8.3671875 z M 3.5039062,-8.3320312 C 3.5039027,-6.2617125 4.0605428,-4.6308547 5.1738281,-3.4394531 C 6.2871031,-2.2480446 7.6835861,-1.6523421 9.3632812,-1.6523438 C 11.074208,-1.6523421 12.482409,-2.253904 13.587891,-3.4570312 C 14.693345,-4.6601516 15.246079,-6.3671811 15.246094,-8.578125 C 15.246079,-9.9765525 15.009751,-11.197254 14.537109,-12.240234 C 14.064439,-13.28319 13.373034,-14.091783 12.462891,-14.666016 C 11.552723,-15.240219 10.531239,-15.527328 9.3984375,-15.527344 C 7.7890547,-15.527328 6.4042905,-14.974594 5.2441406,-13.869141 C 4.0839803,-12.763659 3.5039027,-10.917958 3.5039062,-8.3320312 L 3.5039062,-8.3320312 z"
       transform="matrix(1,0,0,-1,50.16,81.12)"
       id="text3330" /><path
       d="M 1.921875,0 L 1.921875,-17.179688 L 4.1953125,-17.179688 L 4.1953125,-10.125 L 13.125,-10.125 L 13.125,-17.179688 L 15.398438,-17.179688 L 15.398438,0 L 13.125,0 L 13.125,-8.0976562 L 4.1953125,-8.0976562 L 4.1953125,0 L 1.921875,0 z"
       transform="matrix(1,0,0,-1,68.88,81.12)"
       id="text3334" /><path
       d="M 1.1601562,-8.3671875 C 1.1601551,-11.218739 1.9257793,-13.451158 3.4570312,-15.064453 C 4.9882763,-16.677718 6.9648368,-17.484358 9.3867188,-17.484375 C 10.972645,-17.484358 12.402331,-17.105452 13.675781,-16.347656 C 14.949204,-15.589828 15.919906,-14.533189 16.587891,-13.177734 C 17.255842,-11.822254 17.589826,-10.285146 17.589844,-8.5664062 C 17.589826,-6.8242119 17.238264,-5.2656197 16.535156,-3.890625 C 15.832015,-2.5156225 14.835923,-1.4746079 13.546875,-0.76757812 C 12.2578,-0.060546814 10.867177,0.29296846 9.375,0.29296875 C 7.7578047,0.29296846 6.3124937,-0.097656152 5.0390625,-0.87890625 C 3.7656212,-1.6601546 2.8007784,-2.7265598 2.1445312,-4.078125 C 1.4882798,-5.4296821 1.1601551,-6.8593681 1.1601562,-8.3671875 L 1.1601562,-8.3671875 z M 3.5039062,-8.3320312 C 3.5039027,-6.2617125 4.0605428,-4.6308547 5.1738281,-3.4394531 C 6.2871031,-2.2480446 7.6835861,-1.6523421 9.3632812,-1.6523438 C 11.074208,-1.6523421 12.482409,-2.253904 13.587891,-3.4570312 C 14.693345,-4.6601516 15.246079,-6.3671811 15.246094,-8.578125 C 15.246079,-9.9765525 15.009751,-11.197254 14.537109,-12.240234 C 14.064439,-13.28319 13.373034,-14.091783 12.462891,-14.666016 C 11.552723,-15.240219 10.531239,-15.527328 9.3984375,-15.527344 C 7.7890547,-15.527328 6.4042905,-14.974594 5.2441406,-13.869141 C 4.0839803,-12.763659 3.5039027,-10.917958 3.5039062,-8.3320312 L 3.5039062,-8.3320312 z"
       transform="matrix(1,0,0,-1,134.88,7.68)"
       id="text3338" /><path
       d="M 1.921875,0 L 1.921875,-17.179688 L 4.1953125,-17.179688 L 4.1953125,-10.125 L 13.125,-10.125 L 13.125,-17.179688 L 15.398438,-17.179688 L 15.398438,0 L 13.125,0 L 13.125,-8.0976562 L 4.1953125,-8.0976562 L 4.1953125,0 L 1.921875,0 z"
       transform="matrix(1,0,0,-1,153.6,7.68)"
       id="text3342" /><path
       d="M 14.109375,-6.0234375 L 16.382812,-5.4492188 C 15.906234,-3.5820277 15.048813,-2.158201 13.810547,-1.1777344 C 12.572253,-0.19726543 11.058583,0.29296846 9.2695312,0.29296875 C 7.4179613,0.29296846 5.9121035,-0.083984291 4.7519531,-0.83789062 C 3.5917933,-1.5917953 2.7089817,-2.6835911 2.1035156,-4.1132812 C 1.4980454,-5.5429632 1.1953113,-7.0781179 1.1953125,-8.71875 C 1.1953113,-10.507802 1.5371078,-12.068347 2.2207031,-13.400391 C 2.904294,-14.732407 3.8769492,-15.744125 5.1386719,-16.435547 C 6.4003842,-17.126936 7.7890547,-17.472639 9.3046875,-17.472656 C 11.023426,-17.472639 12.468738,-17.035139 13.640625,-16.160156 C 14.812485,-15.285141 15.628891,-14.054673 16.089844,-12.46875 L 13.851562,-11.941406 C 13.453112,-13.191393 12.874987,-14.101548 12.117188,-14.671875 C 11.359364,-15.242172 10.40624,-15.527328 9.2578125,-15.527344 C 7.9374921,-15.527328 6.8339775,-15.210922 5.9472656,-14.578125 C 5.0605418,-13.945299 4.4374956,-13.09569 4.078125,-12.029297 C 3.7187463,-10.96288 3.539059,-9.8632714 3.5390625,-8.7304688 C 3.539059,-7.269524 3.7519494,-5.9941346 4.1777344,-4.9042969 C 4.603511,-3.8144493 5.2656197,-2.999997 6.1640625,-2.4609375 C 7.0624929,-1.9218731 8.0351482,-1.6523421 9.0820312,-1.6523438 C 10.355458,-1.6523421 11.433582,-2.0195292 12.316406,-2.7539062 C 13.199206,-3.4882778 13.796861,-4.5781204 14.109375,-6.0234375 L 14.109375,-6.0234375 z"
       transform="matrix(1,0,0,-1,84.96,171.36)"
       id="text3346" /><path
       d="M 1.921875,0 L 1.921875,-17.179688 L 4.1953125,-17.179688 L 4.1953125,-10.125 L 13.125,-10.125 L 13.125,-17.179688 L 15.398438,-17.179688 L 15.398438,0 L 13.125,0 L 13.125,-8.0976562 L 4.1953125,-8.0976562 L 4.1953125,0 L 1.921875,0 z"
       transform="matrix(1,0,0,-1,58.8,171.36)"
       id="text3350" /><path
       d="M 8.0546875,-1.3515625 L 8.0546875,0 L 0.484375,0 C 0.47395786,-0.33854133 0.5286453,-0.66406184 0.6484375,-0.9765625 C 0.84114499,-1.492186 1.1497384,-1.999998 1.5742188,-2.5 C 1.9986959,-2.999997 2.6119766,-3.5781214 3.4140625,-4.234375 C 4.6588495,-5.2552031 5.4999945,-6.063796 5.9375,-6.6601562 C 6.3749936,-7.2565032 6.5937434,-7.8203047 6.59375,-8.3515625 C 6.5937434,-8.9088453 6.3945249,-9.3788969 5.9960938,-9.7617188 C 5.5976507,-10.144521 5.0781199,-10.335927 4.4375,-10.335938 C 3.7604129,-10.335927 3.2187468,-10.132802 2.8125,-9.7265625 C 2.4062476,-9.3203032 2.2005186,-8.7578037 2.1953125,-8.0390625 L 0.75,-8.1875 C 0.84895748,-9.2656157 1.2213529,-10.087229 1.8671875,-10.652344 C 2.5130183,-11.217437 3.380205,-11.499988 4.46875,-11.5 C 5.5677028,-11.499988 6.4374936,-11.195301 7.078125,-10.585938 C 7.7187423,-9.9765525 8.0390545,-9.2213449 8.0390625,-8.3203125 C 8.0390545,-7.8619713 7.9453046,-7.4114509 7.7578125,-6.96875 C 7.5703049,-6.5260351 7.2591073,-6.0598898 6.8242188,-5.5703125 C 6.3893165,-5.0807241 5.666661,-4.4088498 4.65625,-3.5546875 C 3.8124962,-2.8463513 3.2708301,-2.3658831 3.03125,-2.1132812 C 2.7916639,-1.8606752 2.5937474,-1.6067692 2.4375,-1.3515625 L 8.0546875,-1.3515625 z"
       transform="matrix(1,0,0,-1,76.08,165.36)"
       id="text3354" /><path
       d="M 1.1601562,-8.3671875 C 1.1601551,-11.218739 1.9257793,-13.451158 3.4570312,-15.064453 C 4.9882763,-16.677718 6.9648368,-17.484358 9.3867188,-17.484375 C 10.972645,-17.484358 12.402331,-17.105452 13.675781,-16.347656 C 14.949204,-15.589828 15.919906,-14.533189 16.587891,-13.177734 C 17.255842,-11.822254 17.589826,-10.285146 17.589844,-8.5664062 C 17.589826,-6.8242119 17.238264,-5.2656197 16.535156,-3.890625 C 15.832015,-2.5156225 14.835923,-1.4746079 13.546875,-0.76757812 C 12.2578,-0.060546814 10.867177,0.29296846 9.375,0.29296875 C 7.7578047,0.29296846 6.3124937,-0.097656152 5.0390625,-0.87890625 C 3.7656212,-1.6601546 2.8007784,-2.7265598 2.1445312,-4.078125 C 1.4882798,-5.4296821 1.1601551,-6.8593681 1.1601562,-8.3671875 L 1.1601562,-8.3671875 z M 3.5039062,-8.3320312 C 3.5039027,-6.2617125 4.0605428,-4.6308547 5.1738281,-3.4394531 C 6.2871031,-2.2480446 7.6835861,-1.6523421 9.3632812,-1.6523438 C 11.074208,-1.6523421 12.482409,-2.253904 13.587891,-3.4570312 C 14.693345,-4.6601516 15.246079,-6.3671811 15.246094,-8.578125 C 15.246079,-9.9765525 15.009751,-11.197254 14.537109,-12.240234 C 14.064439,-13.28319 13.373034,-14.091783 12.462891,-14.666016 C 11.552723,-15.240219 10.531239,-15.527328 9.3984375,-15.527344 C 7.7890547,-15.527328 6.4042905,-14.974594 5.2441406,-13.869141 C 4.0839803,-12.763659 3.5039027,-10.917958 3.5039062,-8.3320312 L 3.5039062,-8.3320312 z"
       transform="matrix(1,0,0,-1,126.72,171.84)"
       id="text3358" /><path
       d="M 1.921875,0 L 1.921875,-17.179688 L 4.1953125,-17.179688 L 4.1953125,-10.125 L 13.125,-10.125 L 13.125,-17.179688 L 15.398438,-17.179688 L 15.398438,0 L 13.125,0 L 13.125,-8.0976562 L 4.1953125,-8.0976562 L 4.1953125,0 L 1.921875,0 z"
       transform="matrix(1,0,0,-1,145.44,171.84)"
       id="text3362" /><path
       d="M 166.32,141.36 L 93.6,141.36"
       id="path3366"
       style="fill:none;stroke:#000000;stroke-width:1.67999995;stroke-linecap:round;stroke-linejoin:miter;stroke-miterlimit:10;stroke-dasharray:none;stroke-opacity:1" /><path
       d="M 206.64,96.24 L 206.64,96.24 L 144,58.32 L 144.48,56.64 L 144.96,54.96 L 206.64,96.24 L 206.64,96.24 z"
       id="path3368"
       style="fill:#000000;fill-opacity:1;fill-rule:evenodd;stroke:#000000;stroke-width:0.23999999;stroke-linecap:round;stroke-linejoin:miter;stroke-miterlimit:10;stroke-dasharray:none;stroke-opacity:1" /><path
       d="M 59.76,56.64 L 58.8,54.96 L 144.96,54.96 L 144.48,56.64 L 144,58.32 L 60.48,58.32 L 59.76,56.64 z"
       id="path3370"
       style="fill:#000000;fill-opacity:1;fill-rule:evenodd;stroke:#000000;stroke-width:0.23999999;stroke-linecap:round;stroke-linejoin:miter;stroke-miterlimit:10;stroke-dasharray:none;stroke-opacity:1" /><path
       d="M 186,129.12 L 206.64,96.24"
       id="path3372"
       style="fill:none;stroke:#000000;stroke-width:1.67999995;stroke-linecap:round;stroke-linejoin:miter;stroke-miterlimit:10;stroke-dasharray:none;stroke-opacity:1" /><path
       d="M 31.44,96.24 L 93.6,141.36"
       id="path3374"
       style="fill:none;stroke:#000000;stroke-width:1.67999995;stroke-linecap:round;stroke-linejoin:miter;stroke-miterlimit:10;stroke-dasharray:none;stroke-opacity:1" /><path
       d="M 31.44,96.24 L 31.44,96.24 L 58.8,54.96 L 59.76,56.64 L 60.48,58.32 L 31.44,96.24 L 31.44,96.24 z"
       id="path3376"
       style="fill:#000000;fill-opacity:1;fill-rule:evenodd;stroke:#000000;stroke-width:0.23999999;stroke-linecap:round;stroke-linejoin:miter;stroke-miterlimit:10;stroke-dasharray:none;stroke-opacity:1" /><path
       d="M 206.64,69.12 L 206.64,96.24"
       id="path3378"
       style="fill:none;stroke:#000000;stroke-width:1.67999995;stroke-linecap:round;stroke-linejoin:miter;stroke-miterlimit:10;stroke-dasharray:none;stroke-opacity:1" /><path
       d="M 31.44,71.76 L 31.44,96.24"
       id="path3380"
       style="fill:none;stroke:#000000;stroke-width:1.67999995;stroke-linecap:round;stroke-linejoin:miter;stroke-miterlimit:10;stroke-dasharray:none;stroke-opacity:1" /><path
       d="M 59.76,78.48 L 59.76,56.64"
       id="path3382"
       style="fill:none;stroke:#000000;stroke-width:1.67999995;stroke-linecap:round;stroke-linejoin:miter;stroke-miterlimit:10;stroke-dasharray:none;stroke-opacity:1" /><path
       d="M 144.48,29.52 L 144.48,56.64"
       id="path3384"
       style="fill:none;stroke:#000000;stroke-width:1.67999995;stroke-linecap:round;stroke-linejoin:miter;stroke-miterlimit:10;stroke-dasharray:none;stroke-opacity:1" /><path
       d="M 93.6,168.72 L 93.6,141.36"
       id="path3386"
       style="fill:none;stroke:#000000;stroke-width:1.67999995;stroke-linecap:round;stroke-linejoin:miter;stroke-miterlimit:10;stroke-dasharray:none;stroke-opacity:1" /><path
       d="M 104.88,180.96 L 124.08,181.2"
       id="path3388"
       style="fill:none;stroke:#000000;stroke-width:1.67999995;stroke-linecap:round;stroke-linejoin:miter;stroke-miterlimit:10;stroke-dasharray:none;stroke-opacity:1" /></g></svg>