<svg width="1280" height="720" xmlns="http://www.w3.org/2000/svg" xmlns:xlink="http://www.w3.org/1999/xlink" overflow="hidden"><g><rect x="0" y="0" width="1280" height="720" fill="#FAFAFA"/><g><g><g><path d="M94.0312 367.029C94.0312 373.812 88.5327 379.31 81.75 379.31 74.9673 379.31 69.4688 373.812 69.4688 367.029 69.4688 360.246 74.9673 354.748 81.75 354.748 88.5327 354.748 94.0312 360.246 94.0312 367.029Z" stroke="#000000" stroke-width="1.36458" fill="#FFC000"/><path d="M159.531 367.029C159.531 373.812 154.033 379.31 147.25 379.31 140.467 379.31 134.969 373.812 134.969 367.029 134.969 360.246 140.467 354.748 147.25 354.748 154.033 354.748 159.531 360.246 159.531 367.029Z" stroke="#000000" stroke-width="1.36458" fill="#FFC000"/><path d="M139.062 426.252 139.062 413.971C139.062 412.06 138.244 410.15 136.606 409.058 133.331 406.329 128.965 404.419 124.598 403.327 121.596 402.508 118.048 401.69 114.5 401.69 111.225 401.69 107.677 402.235 104.402 403.327 100.035 404.419 95.9417 406.602 92.3938 409.058 90.7563 410.423 89.9375 412.06 89.9375 413.971L89.9375 426.252 139.062 426.252Z" stroke="#000000" stroke-width="1.36458" fill="#FFC000"/><path d="M126.781 386.133C126.781 392.916 121.283 398.415 114.5 398.415 107.717 398.415 102.219 392.916 102.219 386.133 102.219 379.351 107.717 373.852 114.5 373.852 121.283 373.852 126.781 379.351 126.781 386.133Z" stroke="#000000" stroke-width="1.36458" fill="#FFC000"/><path d="M169.356 389.954C166.081 387.225 161.715 385.315 157.348 384.223 154.346 383.404 150.798 382.585 147.25 382.585 143.975 382.585 140.427 383.131 137.152 384.223 135.515 384.769 133.877 385.315 132.24 386.133L132.24 386.406C132.24 391.046 130.329 395.413 127.327 398.415 132.513 400.052 136.606 402.235 139.881 404.692 140.7 405.51 141.519 406.056 142.065 407.148L171.812 407.148 171.812 394.867C171.812 392.956 170.994 391.046 169.356 389.954Z" stroke="#000000" stroke-width="1.36458" fill="#FFC000"/><path d="M89.1188 404.692 89.1188 404.692C92.9396 401.962 97.3063 399.779 101.673 398.415 98.6708 395.14 96.7604 391.046 96.7604 386.406 96.7604 386.133 96.7604 386.133 96.7604 385.86 95.1229 385.315 93.4854 384.496 91.8479 384.223 88.8458 383.404 85.2979 382.585 81.75 382.585 78.475 382.585 74.9271 383.131 71.6521 384.223 67.2854 385.587 63.1917 387.498 59.6437 389.954 58.0062 391.046 57.1875 392.956 57.1875 394.867L57.1875 407.148 86.6625 407.148C87.4812 406.056 88.0271 405.51 89.1188 404.692Z" stroke="#000000" stroke-width="1.36458" fill="#FFC000"/></g></g></g><g><g><g><path d="M94.0312 69.0292C94.0312 75.8119 88.5327 81.3104 81.75 81.3104 74.9673 81.3104 69.4688 75.8119 69.4688 69.0292 69.4688 62.2464 74.9673 56.7479 81.75 56.7479 88.5327 56.7479 94.0312 62.2464 94.0312 69.0292Z" stroke="#000000" stroke-width="1.36458" fill="#549E39"/><path d="M159.531 69.0292C159.531 75.8119 154.033 81.3104 147.25 81.3104 140.467 81.3104 134.969 75.8119 134.969 69.0292 134.969 62.2464 140.467 56.7479 147.25 56.7479 154.033 56.7479 159.531 62.2464 159.531 69.0292Z" stroke="#000000" stroke-width="1.36458" fill="#549E39"/><path d="M139.062 128.252 139.062 115.971C139.062 114.06 138.244 112.15 136.606 111.058 133.331 108.329 128.965 106.419 124.598 105.327 121.596 104.508 118.048 103.69 114.5 103.69 111.225 103.69 107.677 104.235 104.402 105.327 100.035 106.419 95.9417 108.602 92.3938 111.058 90.7563 112.423 89.9375 114.06 89.9375 115.971L89.9375 128.252 139.062 128.252Z" stroke="#000000" stroke-width="1.36458" fill="#549E39"/><path d="M126.781 88.1333C126.781 94.9161 121.283 100.415 114.5 100.415 107.717 100.415 102.219 94.9161 102.219 88.1333 102.219 81.3506 107.717 75.8521 114.5 75.8521 121.283 75.8521 126.781 81.3506 126.781 88.1333Z" stroke="#000000" stroke-width="1.36458" fill="#549E39"/><path d="M169.356 91.9542C166.081 89.225 161.715 87.3146 157.348 86.2229 154.346 85.4042 150.798 84.5854 147.25 84.5854 143.975 84.5854 140.427 85.1312 137.152 86.2229 135.515 86.7688 133.877 87.3146 132.24 88.1333L132.24 88.4062C132.24 93.0458 130.329 97.4125 127.327 100.415 132.513 102.052 136.606 104.235 139.881 106.692 140.7 107.51 141.519 108.056 142.065 109.148L171.812 109.148 171.812 96.8667C171.812 94.9563 170.994 93.0458 169.356 91.9542Z" stroke="#000000" stroke-width="1.36458" fill="#549E39"/><path d="M89.1188 106.692 89.1188 106.692C92.9396 103.963 97.3063 101.779 101.673 100.415 98.6708 97.1396 96.7604 93.0458 96.7604 88.4062 96.7604 88.1333 96.7604 88.1333 96.7604 87.8604 95.1229 87.3146 93.4854 86.4958 91.8479 86.2229 88.8458 85.4042 85.2979 84.5854 81.75 84.5854 78.475 84.5854 74.9271 85.1312 71.6521 86.2229 67.2854 87.5875 63.1917 89.4979 59.6437 91.9542 58.0062 93.0458 57.1875 94.9563 57.1875 96.8667L57.1875 109.148 86.6625 109.148C87.4812 108.056 88.0271 107.51 89.1188 106.692Z" stroke="#000000" stroke-width="1.36458" fill="#549E39"/></g></g></g><text font-family="Calibri,Calibri_MSFontService,sans-serif" font-weight="400" font-size="32" transform="translate(31.7225 172)">Grupo control</text><text font-family="Calibri,Calibri_MSFontService,sans-serif" font-weight="400" font-size="32" transform="translate(40.8159 466)">Grupo caso</text><path d="M363.5 114.5 363.5 109 219.5 109 219.5 98.0001 363.5 98.0001 363.5 92.5001 374.5 103.5Z" stroke="#1E4012" stroke-width="1.33333" stroke-miterlimit="8" fill-rule="evenodd"/><g><g><g><path d="M412 62.625C412 62.625 385.438 100.025 385.438 116.812 385.438 131.475 397.337 143.375 412 143.375 426.663 143.375 438.562 131.475 438.562 116.812 438.562 99.9187 412 62.625 412 62.625Z" stroke="#000000" stroke-width="1.0625" fill="#C00000"/></g></g></g><rect x="208.5" y="224.5" width="192" height="100" stroke="#000000" stroke-width="1.33333" stroke-miterlimit="8" fill="#FFFFFF"/><text font-family="Calibri,Calibri_MSFontService,sans-serif" font-weight="400" font-size="37.3333" transform="translate(225.402 264)">Extracción</text><text font-family="Calibri,Calibri_MSFontService,sans-serif" font-weight="400" font-size="37.3333" transform="translate(219.835 309)">de</text><text font-family="Calibri,Calibri_MSFontService,sans-serif" font-weight="400" font-size="37.3333" transform="translate(266.502 309)">mostras</text><path d="M652.5 114.5 652.5 109 455.5 109 455.5 98.0001 652.5 98.0001 652.5 92.5001 663.5 103.5Z" stroke="#1E4012" stroke-width="1.33333" stroke-miterlimit="8" fill-rule="evenodd"/><rect x="478.5" y="223.5" width="148" height="100" stroke="#000000" stroke-width="1.33333" stroke-miterlimit="8" fill="#FFFFFF"/><text font-family="Calibri,Calibri_MSFontService,sans-serif" font-weight="400" font-size="37.3333" transform="translate(497.005 263)">Análise</text><text font-family="Calibri,Calibri_MSFontService,sans-serif" font-weight="400" font-size="37.3333" transform="translate(505.991 308)">ómica</text><path d="M755.013 116.286 804.147 116.286 804.147 147.486 755.013 147.486Z" fill="#D9D9D9" fill-rule="evenodd"/><path d="M804.147 116.286 853.281 116.286 853.281 147.486 804.147 147.486Z" fill="#D9D9D9" fill-rule="evenodd"/><path d="M853.281 116.286 902.415 116.286 902.415 147.486 853.281 147.486Z" fill="#D9D9D9" fill-rule="evenodd"/><path d="M902.415 116.286 951.549 116.286 951.549 147.486 902.415 147.486Z" fill="#D9D9D9" fill-rule="evenodd"/><path d="M951.549 116.286 1000.68 116.286 1000.68 147.486 951.549 147.486Z" fill="#D9D9D9" fill-rule="evenodd"/><path d="M1000.68 116.286 1049.82 116.286 1049.82 147.486 1000.68 147.486Z" fill="#D9D9D9" fill-rule="evenodd"/><path d="M1049.82 116.286 1098.95 116.286 1098.95 147.486 1049.82 147.486Z" fill="#D9D9D9" fill-rule="evenodd"/><path d="M1098.95 116.286 1148.08 116.286 1148.08 147.486 1098.95 147.486Z" fill="#D9D9D9" fill-rule="evenodd"/><path d="M698.32 147.486 755.013 147.486 755.013 178.686 698.32 178.686Z" fill="#D7E2DC" fill-rule="evenodd"/><path d="M698.32 178.686 755.013 178.686 755.013 209.886 698.32 209.886Z" fill="#D7E2DC" fill-rule="evenodd"/><path d="M698.32 209.886 755.013 209.886 755.013 241.086 698.32 241.086Z" fill="#D7E2DC" fill-rule="evenodd"/><path d="M698.32 241.086 755.013 241.086 755.013 272.286 698.32 272.286Z" fill="#D7E2DC" fill-rule="evenodd"/><path d="M698.32 272.286 755.013 272.286 755.013 303.486 698.32 303.486Z" fill="#D7E2DC" fill-rule="evenodd"/><path d="M698.32 303.486 755.013 303.486 755.013 334.686 698.32 334.686Z" fill="#D7E2DC" fill-rule="evenodd"/><path d="M698.32 334.686 755.013 334.686 755.013 365.886 698.32 365.886Z" fill="#D7E2DC" fill-rule="evenodd"/><path d="M698.32 365.886 755.013 365.886 755.013 397.086 698.32 397.086Z" fill="#D7E2DC" fill-rule="evenodd"/><path d="M698.32 397.086 755.013 397.086 755.013 428.286 698.32 428.286Z" fill="#D7E2DC" fill-rule="evenodd"/><path d="M755.013 115.619 755.013 147.486" stroke="#000000" stroke-width="1.33333" stroke-linejoin="round" stroke-miterlimit="10" fill="none" fill-rule="evenodd"/><path d="M755.013 147.486 755.013 428.952" stroke="#000000" stroke-width="1.33333" stroke-linejoin="round" stroke-miterlimit="10" fill="none" fill-rule="evenodd"/><path d="M804.147 115.619 804.147 428.952" stroke="#000000" stroke-width="1.33333" stroke-linejoin="round" stroke-miterlimit="10" fill="none" fill-rule="evenodd"/><path d="M853.281 115.619 853.281 428.952" stroke="#000000" stroke-width="1.33333" stroke-linejoin="round" stroke-miterlimit="10" fill="none" fill-rule="evenodd"/><path d="M902.415 115.619 902.415 428.952" stroke="#000000" stroke-width="1.33333" stroke-linejoin="round" stroke-miterlimit="10" fill="none" fill-rule="evenodd"/><path d="M951.549 115.619 951.549 428.952" stroke="#000000" stroke-width="1.33333" stroke-linejoin="round" stroke-miterlimit="10" fill="none" fill-rule="evenodd"/><path d="M1000.68 115.619 1000.68 428.952" stroke="#000000" stroke-width="1.33333" stroke-linejoin="round" stroke-miterlimit="10" fill="none" fill-rule="evenodd"/><path d="M1049.82 115.619 1049.82 428.952" stroke="#000000" stroke-width="1.33333" stroke-linejoin="round" stroke-miterlimit="10" fill="none" fill-rule="evenodd"/><path d="M1098.95 115.619 1098.95 428.952" stroke="#000000" stroke-width="1.33333" stroke-linejoin="round" stroke-miterlimit="10" fill="none" fill-rule="evenodd"/><path d="M697.654 147.486 755.013 147.486" stroke="#000000" stroke-width="1.33333" stroke-linejoin="round" stroke-miterlimit="10" fill="none" fill-rule="evenodd"/><path d="M755.013 147.486 1148.75 147.486" stroke="#000000" stroke-width="1.33333" stroke-linejoin="round" stroke-miterlimit="10" fill="none" fill-rule="evenodd"/><path d="M697.654 178.686 1148.75 178.686" stroke="#000000" stroke-width="1.33333" stroke-linejoin="round" stroke-miterlimit="10" fill="none" fill-rule="evenodd"/><path d="M697.654 209.886 1148.75 209.886" stroke="#000000" stroke-width="1.33333" stroke-linejoin="round" stroke-miterlimit="10" fill="none" fill-rule="evenodd"/><path d="M697.654 241.086 1148.75 241.086" stroke="#000000" stroke-width="1.33333" stroke-linejoin="round" stroke-miterlimit="10" fill="none" fill-rule="evenodd"/><path d="M697.654 272.286 1148.75 272.286" stroke="#000000" stroke-width="1.33333" stroke-linejoin="round" stroke-miterlimit="10" fill="none" fill-rule="evenodd"/><path d="M697.654 303.486 1148.75 303.486" stroke="#000000" stroke-width="1.33333" stroke-linejoin="round" stroke-miterlimit="10" fill="none" fill-rule="evenodd"/><path d="M697.654 334.686 1148.75 334.686" stroke="#000000" stroke-width="1.33333" stroke-linejoin="round" stroke-miterlimit="10" fill="none" fill-rule="evenodd"/><path d="M697.654 365.886 1148.75 365.886" stroke="#000000" stroke-width="1.33333" stroke-linejoin="round" stroke-miterlimit="10" fill="none" fill-rule="evenodd"/><path d="M697.654 397.086 1148.75 397.086" stroke="#000000" stroke-width="1.33333" stroke-linejoin="round" stroke-miterlimit="10" fill="none" fill-rule="evenodd"/><path d="M698.32 146.819 698.32 428.952" stroke="#000000" stroke-width="1.33333" stroke-linejoin="round" stroke-miterlimit="10" fill="none" fill-rule="evenodd"/><path d="M1148.08 115.619 1148.08 428.952" stroke="#000000" stroke-width="1.33333" stroke-linejoin="round" stroke-miterlimit="10" fill="none" fill-rule="evenodd"/><path d="M754.347 116.286 1148.75 116.286" stroke="#000000" stroke-width="1.33333" stroke-linejoin="round" stroke-miterlimit="10" fill="none" fill-rule="evenodd"/><path d="M697.654 428.286 1148.75 428.286" stroke="#000000" stroke-width="1.33333" stroke-linejoin="round" stroke-miterlimit="10" fill="none" fill-rule="evenodd"/><rect x="695.5" y="437.5" width="453" height="49" stroke="#000000" stroke-width="1.33333" stroke-miterlimit="8" fill="none"/><text font-family="Calibri,Calibri_MSFontService,sans-serif" font-weight="400" font-size="32" transform="translate(765.412 472)">Matriz de cuantificación</text><rect x="643" y="201" width="49" height="155" fill="#FFFFFF" fill-opacity="0.8"/><text font-family="Calibri,Calibri_MSFontService,sans-serif" font-weight="400" font-size="32" transform="matrix(-1.83697e-16 -1 1 -1.83697e-16 678.2 345)">Moléculas</text><text font-family="Calibri,Calibri_MSFontService,sans-serif" font-weight="400" font-size="32" transform="translate(764.308 95)">Grupo control</text><text font-family="Calibri,Calibri_MSFontService,sans-serif" font-weight="400" font-size="32" transform="translate(977.279 92)">Grupo caso</text><path d="M0 0 193.179 0.359055" stroke="#549E39" stroke-width="3" stroke-miterlimit="8" fill="none" fill-rule="evenodd" transform="matrix(1 0 0 -1 754.5 107.859)"/><path d="M954.5 107.5 1147.26 107.5" stroke="#960000" stroke-width="3" stroke-miterlimit="8" fill="none" fill-rule="evenodd"/><path d="M363.5 428.5 363.5 423 219.5 423 219.5 412 363.5 412 363.5 406.5 374.5 417.5Z" stroke="#1E4012" stroke-width="1.33333" stroke-miterlimit="8" fill-rule="evenodd"/><path d="M652.5 428.5 652.5 423 455.5 423 455.5 412 652.5 412 652.5 406.5 663.5 417.5Z" stroke="#1E4012" stroke-width="1.33333" stroke-miterlimit="8" fill-rule="evenodd"/><g><g><g><path d="M416 364.625C416 364.625 389.438 402.025 389.438 418.812 389.438 433.475 401.337 445.375 416 445.375 430.663 445.375 442.562 433.475 442.562 418.812 442.562 401.919 416 364.625 416 364.625Z" stroke="#000000" stroke-width="1.0625" fill="#C00000"/></g></g></g><path d="M1258.5 114.5 1258.5 109 1155.5 109 1155.5 98.0001 1258.5 98.0001 1258.5 92.5001 1269.5 103.5Z" stroke="#1E4012" stroke-width="1.33333" stroke-miterlimit="8" fill-rule="evenodd"/><path d="M1258.5 428.5 1258.5 423 1155.5 423 1155.5 412 1258.5 412 1258.5 406.5 1269.5 417.5Z" stroke="#1E4012" stroke-width="1.33333" stroke-miterlimit="8" fill-rule="evenodd"/><rect x="1189.5" y="24.5" width="48" height="493" stroke="#000000" stroke-width="1.33333" stroke-miterlimit="8" fill="#FFFFFF"/><text font-family="Calibri,Calibri_MSFontService,sans-serif" font-weight="700" font-size="32" transform="matrix(-1.83697e-16 -1 1 -1.83697e-16 1223.61 493)">Análise</text><text font-family="Calibri,Calibri_MSFontService,sans-serif" font-weight="700" font-size="32" transform="matrix(-1.83697e-16 -1 1 -1.83697e-16 1223.61 389)">de abundancia diferencial</text></g></svg>