<svg width="518" height="370" xmlns="http://www.w3.org/2000/svg" xmlns:xlink="http://www.w3.org/1999/xlink" overflow="hidden"><defs><clipPath id="clip0"><rect x="0" y="0" width="518" height="370"/></clipPath></defs><g clip-path="url(#clip0)"><rect x="0" y="0" width="518" height="369.548" fill="#FFFFFF" fill-opacity="0"/><path d="M7.26165 1.08155 216.913 1.08155 216.913 31.2906 7.26165 31.2906Z" fill="#23373B" fill-rule="evenodd"/><path d="M216.913 1.08155 510.905 1.08155 510.905 31.2906 216.913 31.2906Z" fill="#23373B" fill-rule="evenodd"/><path d="M7.26165 31.2906 510.905 31.2906 510.905 57.787 7.26165 57.787Z" fill="#B9D0D5" fill-rule="evenodd"/><path d="M7.26165 174.847 510.905 174.847 510.905 201.343 7.26165 201.343Z" fill="#B9D0D5" fill-rule="evenodd"/><path d="M216.913 0.582048 216.913 31.79" stroke="#23373B" stroke-width="1.00032" stroke-linejoin="round" stroke-miterlimit="10" fill="none" fill-rule="evenodd"/><path d="M260.084 57.2875 260.084 175.346" stroke="#23373B" stroke-width="1.00032" stroke-linejoin="round" stroke-miterlimit="10" fill="none" fill-rule="evenodd"/><path d="M260.084 200.844 260.084 368.598" stroke="#23373B" stroke-width="1.00032" stroke-linejoin="round" stroke-miterlimit="10" fill="none" fill-rule="evenodd"/><path d="M6.76155 31.2906 511.405 31.2906" stroke="#23373B" stroke-width="1.00032" stroke-linejoin="round" stroke-miterlimit="10" fill="none" fill-rule="evenodd"/><path d="M6.76155 57.787 511.405 57.787" stroke="#23373B" stroke-width="1.00032" stroke-linejoin="round" stroke-miterlimit="10" fill="none" fill-rule="evenodd"/><path d="M6.76155 87.996 511.405 87.996" stroke="#23373B" stroke-width="1.00032" stroke-linejoin="round" stroke-miterlimit="10" fill="none" fill-rule="evenodd"/><path d="M6.76155 118.205 511.405 118.205" stroke="#23373B" stroke-width="1.00032" stroke-linejoin="round" stroke-miterlimit="10" fill="none" fill-rule="evenodd"/><path d="M6.76155 174.847 511.405 174.847" stroke="#23373B" stroke-width="1.00032" stroke-linejoin="round" stroke-miterlimit="10" fill="none" fill-rule="evenodd"/><path d="M6.76155 201.343 511.405 201.343" stroke="#23373B" stroke-width="1.00032" stroke-linejoin="round" stroke-miterlimit="10" fill="none" fill-rule="evenodd"/><path d="M6.76155 240.288 511.405 240.288" stroke="#23373B" stroke-width="1.00032" stroke-linejoin="round" stroke-miterlimit="10" fill="none" fill-rule="evenodd"/><path d="M6.76155 270.497 511.405 270.497" stroke="#23373B" stroke-width="1.00032" stroke-linejoin="round" stroke-miterlimit="10" fill="none" fill-rule="evenodd"/><path d="M6.76155 300.706 511.405 300.706" stroke="#23373B" stroke-width="1.00032" stroke-linejoin="round" stroke-miterlimit="10" fill="none" fill-rule="evenodd"/><path d="M7.26165 0.582048 7.26165 368.598" stroke="#23373B" stroke-width="1.00032" stroke-linejoin="round" stroke-miterlimit="10" fill="none" fill-rule="evenodd"/><path d="M510.905 0.582048 510.905 368.598" stroke="#23373B" stroke-width="1.00032" stroke-linejoin="round" stroke-miterlimit="10" fill="none" fill-rule="evenodd"/><path d="M6.76155 1.08155 511.405 1.08155" stroke="#23373B" stroke-width="1.00032" stroke-linejoin="round" stroke-miterlimit="10" fill="none" fill-rule="evenodd"/><path d="M6.76155 368.099 511.405 368.099" stroke="#23373B" stroke-width="1.00032" stroke-linejoin="round" stroke-miterlimit="10" fill="none" fill-rule="evenodd"/><text fill="#FFFFFF" font-family="Calibri Light,Calibri Light_MSFontService,sans-serif" font-weight="300" font-size="18.6499" transform="matrix(1 0 0 0.998778 326.073 22)">Paquete R</text><text fill="#FFFFFF" font-family="Calibri Light,Calibri Light_MSFontService,sans-serif" font-weight="300" font-size="18.6499" transform="matrix(1 0 0 0.998778 82.0842 22)">Método</text><text font-family="Calibri Light,Calibri Light_MSFontService,sans-serif" font-weight="300" font-size="18.6499" transform="matrix(1 0 0 0.998778 216.623 50)">Imputación</text><path d="M0-11.9853 158.806-11.9853 158.806 4.99389 0 4.99389Z" fill="#E7E8E2" fill-rule="evenodd" transform="matrix(1.00122 0 0 1 264.704 76.9936)"/><g><text font-family="Courier New,Courier New_MSFontService,sans-serif" font-weight="400" font-size="14.6535" transform="matrix(1 0 0 0.998778 264.704 77)">impute::impute.knn</text></g><text font-family="Calibri,Calibri_MSFontService,sans-serif" font-weight="400" font-size="17.3177" transform="matrix(1 0 0 0.998778 18.996 78)">KNN</text><path d="M0-11.9853 88.2254-11.9853 88.2254 4.99389 2.54002e-06 4.99389Z" fill="#E7E8E2" fill-rule="evenodd" transform="matrix(1.00122 0 0 1 264.704 107.166)"/><path d="M0-11.9853 17.6451-11.9853 17.6451 4.99389-6.35006e-07 4.99389Z" fill="#E7E8E2" fill-rule="evenodd" transform="matrix(1.00122 0 0 1 353.065 107.166)"/><path d="M0-11.9853 88.2254-11.9853 88.2254 4.99389 2.54002e-06 4.99389Z" fill="#E7E8E2" fill-rule="evenodd" transform="matrix(1.00122 0 0 1 370.738 107.166)"/><g><text font-family="Courier New,Courier New_MSFontService,sans-serif" font-weight="400" font-size="14.6535" transform="matrix(1 0 0 0.998778 264.704 107)">missForest</text></g><text font-family="Courier New,Courier New_MSFontService,sans-serif" font-weight="400" font-size="14.6535" transform="matrix(1 0 0 0.998778 353.065 107)">::</text><text font-family="Courier New,Courier New_MSFontService,sans-serif" font-weight="400" font-size="14.6535" transform="matrix(1 0 0 0.998778 370.738 107)">missForest</text><text font-family="Calibri,Calibri_MSFontService,sans-serif" font-weight="400" font-size="17.3177" transform="matrix(1 0 0 0.998778 18.996 109)">RF</text><text font-family="Calibri,Calibri_MSFontService,sans-serif" font-weight="400" font-size="17.3177" transform="matrix(1 0 0 0.998778 40.3362 109)">imputation</text><path d="M0-11.9853 88.2254-11.9853 88.2254 4.99389 2.54002e-06 4.99389Z" fill="#E7E8E2" fill-rule="evenodd" transform="matrix(1.00122 0 0 1 264.704 132.919)"/><path d="M0-11.9853 17.6451-11.9853 17.6451 4.99389-6.35006e-07 4.99389Z" fill="#E7E8E2" fill-rule="evenodd" transform="matrix(1.00122 0 0 1 353.065 132.919)"/><path d="M0-11.9853 26.4676-11.9853 26.4676 4.99389 0 4.99389Z" fill="#E7E8E2" fill-rule="evenodd" transform="matrix(1.00122 0 0 1 370.738 132.919)"/><path d="M0-11.9853 52.9353-11.9853 52.9353 4.99389 0 4.99389Z" fill="#E7E8E2" fill-rule="evenodd" transform="matrix(1.00122 0 0 1 301.382 150.897)"/><path d="M0-11.9853 8.82254-11.9853 8.82254 4.99389-3.17503e-07 4.99389Z" fill="#E7E8E2" fill-rule="evenodd" transform="matrix(1.00122 0 0 1 354.399 150.897)"/><path d="M0-11.9853 17.6451-11.9853 17.6451 4.99389-6.35006e-07 4.99389Z" fill="#E7E8E2" fill-rule="evenodd" transform="matrix(1.00122 0 0 1 363.235 150.897)"/><path d="M0-11.9853 35.2902-11.9853 35.2902 4.99389-1.27001e-06 4.99389Z" fill="#E7E8E2" fill-rule="evenodd" transform="matrix(1.00122 0 0 1 380.908 150.897)"/><path d="M0-11.9853 52.9353-11.9853 52.9353 4.99389 0 4.99389Z" fill="#E7E8E2" fill-rule="evenodd" transform="matrix(1.00122 0 0 1 301.382 167.876)"/><path d="M0-11.9853 8.82254-11.9853 8.82254 4.99389-3.17503e-07 4.99389Z" fill="#E7E8E2" fill-rule="evenodd" transform="matrix(1.00122 0 0 1 354.399 167.876)"/><path d="M0-11.9853 17.6451-11.9853 17.6451 4.99389-6.35006e-07 4.99389Z" fill="#E7E8E2" fill-rule="evenodd" transform="matrix(1.00122 0 0 1 363.235 167.876)"/><path d="M0-11.9853 79.4029-11.9853 79.4029 4.99389 0 4.99389Z" fill="#E7E8E2" fill-rule="evenodd" transform="matrix(1.00122 0 0 1 380.908 167.876)"/><g><text font-family="Courier New,Courier New_MSFontService,sans-serif" font-weight="400" font-size="14.6535" transform="matrix(1 0 0 0.998778 264.704 133)">pcaMethods</text></g><text font-family="Courier New,Courier New_MSFontService,sans-serif" font-weight="400" font-size="14.6535" transform="matrix(1 0 0 0.998778 353.065 133)">::</text><text font-family="Courier New,Courier New_MSFontService,sans-serif" font-weight="400" font-size="14.6535" transform="matrix(1 0 0 0.998778 370.738 133)">pca</text><text font-family="Arial,Arial_MSFontService,sans-serif" font-weight="400" font-size="14.6535" transform="matrix(1 0 0 0.998778 283.376 151)">•</text><text font-family="Courier New,Courier New_MSFontService,sans-serif" font-weight="400" font-size="14.6535" transform="matrix(1 0 0 0.998778 301.382 151)">method</text><text font-family="Courier New,Courier New_MSFontService,sans-serif" font-weight="400" font-size="14.6535" transform="matrix(1 0 0 0.998778 354.399 151)"></text><text font-family="Courier New,Courier New_MSFontService,sans-serif" font-weight="400" font-size="14.6535" transform="matrix(1 0 0 0.998778 363.235 151)">=</text><text font-family="Courier New,Courier New_MSFontService,sans-serif" font-weight="400" font-size="14.6535" transform="matrix(1 0 0 0.998778 380.908 151)">bpca</text><text font-family="Arial,Arial_MSFontService,sans-serif" font-weight="400" font-size="14.6535" transform="matrix(1 0 0 0.998778 283.376 168)">•</text><text font-family="Courier New,Courier New_MSFontService,sans-serif" font-weight="400" font-size="14.6535" transform="matrix(1 0 0 0.998778 301.382 168)">method</text><text font-family="Courier New,Courier New_MSFontService,sans-serif" font-weight="400" font-size="14.6535" transform="matrix(1 0 0 0.998778 354.399 168)"></text><text font-family="Courier New,Courier New_MSFontService,sans-serif" font-weight="400" font-size="14.6535" transform="matrix(1 0 0 0.998778 363.235 168)">=</text><text font-family="Courier New,Courier New_MSFontService,sans-serif" font-weight="400" font-size="14.6535" transform="matrix(1 0 0 0.998778 380.908 168)">llsImpute</text><text font-family="Arial,Arial_MSFontService,sans-serif" font-weight="400" font-size="17.3177" transform="matrix(1 0 0 0.998778 18.8114 151)">•</text><text font-family="Calibri,Calibri_MSFontService,sans-serif" font-weight="400" font-size="17.3177" transform="matrix(1 0 0 0.998778 38.0176 151)">Bayesian</text><text font-family="Calibri,Calibri_MSFontService,sans-serif" font-weight="400" font-size="17.3177" transform="matrix(1 0 0 0.998778 104.172 151)">PCA</text><text font-family="Arial,Arial_MSFontService,sans-serif" font-weight="400" font-size="17.3177" transform="matrix(1 0 0 0.998778 18.8114 168)">•</text><text font-family="Calibri,Calibri_MSFontService,sans-serif" font-weight="400" font-size="17.3177" transform="matrix(1 0 0 0.998778 38.0176 168)">Local</text><text font-family="Calibri,Calibri_MSFontService,sans-serif" font-weight="400" font-size="17.3177" transform="matrix(1 0 0 0.998778 78.0505 168)">Least</text><text font-family="Calibri,Calibri_MSFontService,sans-serif" font-weight="400" font-size="17.3177" transform="matrix(1 0 0 0.998778 118.87 168)">Squares</text><text font-family="Calibri Light,Calibri Light_MSFontService,sans-serif" font-weight="300" font-size="18.6499" transform="matrix(1 0 0 0.998778 205.416 194)">Normalización</text><path d="M0-11.9853 123.516-11.9853 123.516 4.99389-2.54002e-06 4.99389Z" fill="#E7E8E2" fill-rule="evenodd" transform="matrix(1.00122 0 0 1 264.704 215.955)"/><path d="M0-11.9853 17.6451-11.9853 17.6451 4.99389-6.35006e-07 4.99389Z" fill="#E7E8E2" fill-rule="evenodd" transform="matrix(1.00122 0 0 1 388.41 215.955)"/><path d="M0-11.9853 17.6451-11.9853 17.6451 4.99389-6.35006e-07 4.99389Z" fill="#E7E8E2" fill-rule="evenodd" transform="matrix(1.00122 0 0 1 264.704 233.933)"/><path d="M0-11.9853 167.628-11.9853 167.628 4.99389-5.08005e-06 4.99389Z" fill="#E7E8E2" fill-rule="evenodd" transform="matrix(1.00122 0 0 1 282.376 233.933)"/><g><text font-family="Courier New,Courier New_MSFontService,sans-serif" font-weight="400" font-size="14.6535" transform="matrix(1 0 0 0.998778 264.704 216)">preprocessCore</text></g><text font-family="Courier New,Courier New_MSFontService,sans-serif" font-weight="400" font-size="14.6535" transform="matrix(1 0 0 0.998778 388.41 216)">::</text><g><text font-family="Courier New,Courier New_MSFontService,sans-serif" font-weight="400" font-size="14.6535" transform="matrix(1 0 0 0.998778 264.704 234)">::</text></g><text font-family="Courier New,Courier New_MSFontService,sans-serif" font-weight="400" font-size="14.6535" transform="matrix(1 0 0 0.998778 282.376 234)">normalize.quantiles</text><text font-family="Calibri,Calibri_MSFontService,sans-serif" font-weight="400" font-size="17.3177" transform="matrix(1 0 0 0.998778 18.996 226)">Quantile</text><path d="M0-11.9853 26.4676-11.9853 26.4676 4.99389 0 4.99389Z" fill="#E7E8E2" fill-rule="evenodd" transform="matrix(1.00122 0 0 1 264.704 259.271)"/><path d="M0-11.9853 17.6451-11.9853 17.6451 4.99389-6.35006e-07 4.99389Z" fill="#E7E8E2" fill-rule="evenodd" transform="matrix(1.00122 0 0 1 291.212 259.271)"/><path d="M0-11.9853 61.7578-11.9853 61.7578 4.99389-1.27001e-06 4.99389Z" fill="#E7E8E2" fill-rule="evenodd" transform="matrix(1.00122 0 0 1 308.884 259.271)"/><g><text font-family="Courier New,Courier New_MSFontService,sans-serif" font-weight="400" font-size="14.6535" transform="matrix(1 0 0 0.998778 264.704 259)">vsn</text></g><text font-family="Courier New,Courier New_MSFontService,sans-serif" font-weight="400" font-size="14.6535" transform="matrix(1 0 0 0.998778 291.212 259)">::</text><text font-family="Courier New,Courier New_MSFontService,sans-serif" font-weight="400" font-size="14.6535" transform="matrix(1 0 0 0.998778 308.884 259)">justvsn</text><text font-family="Calibri,Calibri_MSFontService,sans-serif" font-weight="400" font-size="17.3177" transform="matrix(1 0 0 0.998778 18.996 261)">VSN</text><path d="M0-11.9853 44.1127-11.9853 44.1127 4.99389 1.27001e-06 4.99389Z" fill="#E7E8E2" fill-rule="evenodd" transform="matrix(1.00122 0 0 1 264.704 289.443)"/><path d="M0-11.9853 17.6451-11.9853 17.6451 4.99389-6.35006e-07 4.99389Z" fill="#E7E8E2" fill-rule="evenodd" transform="matrix(1.00122 0 0 1 308.884 289.443)"/><path d="M0-11.9853 176.451-11.9853 176.451 4.99389 5.08005e-06 4.99389Z" fill="#E7E8E2" fill-rule="evenodd" transform="matrix(1.00122 0 0 1 326.557 289.443)"/><g><text font-family="Courier New,Courier New_MSFontService,sans-serif" font-weight="400" font-size="14.6535" transform="matrix(1 0 0 0.998778 264.704 289)">limma</text></g><text font-family="Courier New,Courier New_MSFontService,sans-serif" font-weight="400" font-size="14.6535" transform="matrix(1 0 0 0.998778 308.884 289)">::</text><g><text font-family="Courier New,Courier New_MSFontService,sans-serif" font-weight="400" font-size="14.6535" transform="matrix(1 0 0 0.998778 326.557 289)">normalizeCyclicLoess</text></g><text font-family="Calibri,Calibri_MSFontService,sans-serif" font-weight="400" font-size="17.3177" transform="matrix(1 0 0 0.998778 18.996 291)">CyclicLoess</text><path d="M0-11.9853 105.871-11.9853 105.871 4.99389 0 4.99389Z" fill="#E7E8E2" fill-rule="evenodd" transform="matrix(1.00122 0 0 1 264.704 315.196)"/><g><text font-family="Courier New,Courier New_MSFontService,sans-serif" font-weight="400" font-size="14.6535" transform="matrix(1 0 0 0.998778 264.704 315)">NormalyzerDE</text></g><text font-family="Calibri,Calibri_MSFontService,sans-serif" font-weight="400" font-size="17.3177" transform="matrix(1 0 0 0.998778 18.8114 329)">Varias</text><text font-family="Calibri,Calibri_MSFontService,sans-serif" font-weight="400" font-size="17.3177" transform="matrix(1 0 0 0.998778 65.193 329)">normalizacións</text><text font-family="Calibri,Calibri_MSFontService,sans-serif" font-weight="400" font-size="17.3177" transform="matrix(1 0 0 0.998778 175.108 329)">con</text><text font-family="Calibri,Calibri_MSFontService,sans-serif" font-weight="400" font-size="17.3177" transform="matrix(1 0 0 0.998778 18.8114 350)">evaluacións</text><text font-family="Calibri,Calibri_MSFontService,sans-serif" font-weight="400" font-size="17.3177" transform="matrix(1 0 0 0.998778 105.333 350)">gráficas</text><text font-family="Calibri,Calibri_MSFontService,sans-serif" font-weight="400" font-size="17.3177" transform="matrix(1 0 0 0.998778 163.085 350)">e</text><text font-family="Calibri,Calibri_MSFontService,sans-serif" font-weight="400" font-size="17.3177" transform="matrix(1 0 0 0.998778 175.755 350)">métricas</text></g></svg>