<?xml version="1.0" standalone="no" ?>
<!DOCTYPE svg PUBLIC "-//W3C//DTD SVG 1.1//EN" "http://www.w3.org/Graphics/SVG/1.1/DTD/svg11.dtd">
<svg width="252px" height="112px" viewBox="0 0 252 112" style="background-color: #ffffff00" xmlns="http://www.w3.org/2000/svg" xmlns:xlink="http://www.w3.org/1999/xlink" version="1.1" >
<text x="0" y="0" stroke="transparent" fill="#000000" transform="matrix(0.133333 0 0 0.133333 10.3371 105.389)" style="font:normal normal normal 200px 'Arial'" >
HO</text>
<text x="0" y="0" stroke="transparent" fill="#000000" transform="matrix(0.133333 0 0 0.133333 29.5949 28.5889)" style="font:normal normal normal 200px 'Arial'" >
O</text>
<text x="0" y="0" stroke="transparent" fill="#000000" transform="matrix(0.133333 0 0 0.133333 196.672 86.1889)" style="font:normal normal normal 200px 'Arial'" >
NH</text>
<text x="0" y="0" stroke="transparent" fill="#000000" transform="matrix(0.133333 0 0 0.133333 235.187 92.0555)" style="font:normal normal normal 150px 'Arial'" >
2</text>
<path stroke="transparent" fill="#000000" transform="matrix(0.133333 0 0 0.133333 -596.867 -654.667)" d="M 6029.54,5193.88 L 6023.54,5190.42 L 6023.54,5183.49 L 6269.95,5041.22 L 6275.95,5051.61 L 6029.54,5193.88 Z " />
<path stroke="transparent" fill="#000000" transform="matrix(0.133333 0 0 0.133333 -596.867 -654.667)" d="M 5774.12,5053.34 L 5774.12,5039.49 L 6023.54,5183.49 L 6023.54,5190.42 L 6017.54,5193.88 L 5774.12,5053.34 Z " />
<path stroke="transparent" fill="#000000" transform="matrix(0.133333 0 0 0.133333 -596.867 -654.667)" d="M 5530.71,5193.88 L 5524.71,5190.42 L 5524.71,5183.49 L 5774.12,5039.49 L 5774.12,5053.34 L 5530.71,5193.88 Z " />
<path stroke="transparent" fill="#000000" transform="matrix(0.133333 0 0 0.133333 -596.867 -654.667)" d="M 5275.29,5053.34 L 5275.29,5039.49 L 5524.71,5183.49 L 5524.71,5190.42 L 5518.71,5193.88 L 5275.29,5053.34 Z " />
<path stroke="transparent" fill="#000000" transform="matrix(0.133333 0 0 0.133333 -596.867 -654.667)" d="M 5272.29,5111.47 L 5278.29,5101.08 L 5475.87,5215.15 L 5469.87,5225.54 L 5272.29,5111.47 Z " />
<path stroke="transparent" fill="#000000" transform="matrix(0.133333 0 0 0.133333 -596.867 -654.667)" d="M 5031.88,5193.88 L 5025.88,5190.42 L 5025.88,5183.49 L 5275.29,5039.49 L 5275.29,5053.34 L 5031.88,5193.88 Z " />
<path stroke="transparent" fill="#000000" transform="matrix(0.133333 0 0 0.133333 -596.867 -654.667)" d="M 5031.88,5474.95 L 5025.88,5478.42 L 5019.88,5474.95 L 5019.88,5193.88 L 5025.88,5190.42 L 5031.88,5193.88 L 5031.88,5474.95 Z " />
<path stroke="transparent" fill="#000000" transform="matrix(0.133333 0 0 0.133333 -596.867 -654.667)" d="M 5083.72,5448.49 L 5071.72,5448.49 L 5071.72,5220.35 L 5083.72,5220.35 L 5083.72,5448.49 Z " />
<path stroke="transparent" fill="#000000" transform="matrix(0.133333 0 0 0.133333 -596.867 -654.667)" d="M 5275.29,5615.49 L 5275.29,5629.34 L 5025.88,5485.34 L 5025.88,5478.42 L 5031.88,5474.95 L 5275.29,5615.49 Z " />
<path stroke="transparent" fill="#000000" transform="matrix(0.133333 0 0 0.133333 -596.867 -654.667)" d="M 5518.71,5474.95 L 5530.71,5481.88 L 5275.29,5629.34 L 5275.29,5615.49 L 5518.71,5474.95 Z " />
<path stroke="transparent" fill="#000000" transform="matrix(0.133333 0 0 0.133333 -596.867 -654.667)" d="M 5469.87,5443.29 L 5475.87,5453.68 L 5278.29,5567.75 L 5272.29,5557.36 L 5469.87,5443.29 Z " />
<path stroke="transparent" fill="#000000" transform="matrix(0.133333 0 0 0.133333 -596.867 -654.667)" d="M 5530.71,5481.88 L 5518.71,5474.95 L 5518.71,5193.88 L 5524.71,5190.42 L 5530.71,5193.88 L 5530.71,5481.88 Z " />
<path stroke="transparent" fill="#000000" transform="matrix(0.133333 0 0 0.133333 -596.867 -654.667)" d="M 4865.14,5578.14 L 4859.14,5567.75 L 5019.88,5474.95 L 5025.88,5478.42 L 5025.88,5485.34 L 4865.14,5578.14 Z " />
<path stroke="transparent" fill="#000000" transform="matrix(0.133333 0 0 0.133333 -596.867 -654.667)" d="M 4866.57,5105.37 L 4872.57,5094.98 L 5025.88,5183.49 L 5025.88,5190.42 L 5019.88,5193.88 L 4866.57,5105.37 Z " />
<path stroke="transparent" fill="#000000" transform="matrix(0.133333 0 0 0.133333 -596.867 -654.667)" d="M 4530.05,5195.61 L 4524.05,5185.22 L 4680.79,5094.73 L 4686.79,5105.12 L 4530.05,5195.61 Z " />
<path stroke="transparent" fill="#000000" transform="matrix(0.133333 0 0 0.133333 -596.867 -654.667)" d="M 6029.54,5383.58 L 6017.54,5383.58 L 6017.54,5193.88 L 6023.54,5190.42 L 6029.54,5193.88 L 6029.54,5383.58 Z " />
</svg>
