<svg width="1247" height="718" xmlns="http://www.w3.org/2000/svg" xmlns:xlink="http://www.w3.org/1999/xlink" overflow="hidden"><g><rect x="0" y="0" width="1247" height="717.929" fill="#FAFAFA"/><path d="M0.999971 235.977 264 235.977 330 301.97 264 367.964 0.999971 367.964 67 301.97Z" fill="#9EBFC6" fill-rule="evenodd"/><text fill="#FFFFFF" font-family="Calibri,Calibri_MSFontService,sans-serif" font-weight="400" font-size="31.9926" transform="matrix(1 0 0 0.999902 79.3973 311)">Preprocesado</text><path d="M297 235.977 560 235.977 626 301.97 560 367.964 297 367.964 363 301.97Z" fill="#6599A3" fill-rule="evenodd"/><text fill="#FFFFFF" font-family="Calibri,Calibri_MSFontService,sans-serif" font-weight="400" font-size="30.6595" transform="matrix(1 0 0 0.999902 376.543 310)">Comparacións</text><path d="M594 235.977 857 235.977 923 301.97 857 367.964 594 367.964 660 301.97Z" fill="#38585E" fill-rule="evenodd"/><text fill="#FFFFFF" font-family="Calibri,Calibri_MSFontService,sans-serif" font-weight="400" font-size="31.9926" transform="matrix(1 0 0 0.999902 694.708 294)">Análise</text><text fill="#FFFFFF" font-family="Calibri,Calibri_MSFontService,sans-serif" font-weight="400" font-size="31.9926" transform="matrix(1 0 0 0.999902 795.708 294)">de</text><text fill="#FFFFFF" font-family="Calibri,Calibri_MSFontService,sans-serif" font-weight="400" font-size="31.9926" transform="matrix(1 0 0 0.999902 673.704 329)">agrupamento</text><path d="M890 235.977 1153 235.977 1219 301.97 1153 367.964 890 367.964 956 301.97Z" fill="#23373B" fill-rule="evenodd"/><text fill="#FFFFFF" font-family="Calibri,Calibri_MSFontService,sans-serif" font-weight="400" font-size="31.9926" transform="matrix(1 0 0 0.999902 1011.16 294)">Análise</text><text fill="#FFFFFF" font-family="Calibri,Calibri_MSFontService,sans-serif" font-weight="400" font-size="31.9926" transform="matrix(1 0 0 0.999902 997.74 329)">funcional</text></g></svg>