<svg width="1280" height="454" xmlns="http://www.w3.org/2000/svg" xmlns:xlink="http://www.w3.org/1999/xlink" overflow="hidden"><defs><clipPath id="clip0"><rect x="0" y="0" width="1280" height="454"/></clipPath></defs><g clip-path="url(#clip0)"><rect x="0" y="0" width="1280" height="454.501" fill="#FFFFFF" fill-opacity="0"/><path d="M210 171.188 210 227.751C210 258.989 192.987 284.313 172 284.313 151.013 284.313 134 258.989 134 227.751L134 171.188Z" fill="#3F762B" fill-rule="evenodd"/><text fill="#FFFFFF" font-family="Calibri,Calibri_MSFontService,sans-serif" font-weight="400" font-size="53.3921" transform="matrix(1 0 0 1.0011 154.918 238)">U</text><rect x="134" y="170.187" width="76" height="17.0187" fill="#595959"/><path d="M295 190.043 295 284.313C295 273.9 278.211 265.459 257.5 265.459 236.789 265.459 220 273.9 220 284.313L220 190.043C220 179.63 236.789 171.189 257.5 171.189 278.211 171.189 295 179.63 295 190.043Z" fill="#7030A0" fill-rule="evenodd"/><text fill="#FFFFFF" font-family="Calibri,Calibri_MSFontService,sans-serif" font-weight="400" font-size="53.3921" transform="matrix(1 0 0 1.0011 242.155 231)">A</text><rect x="220" y="170.187" width="75" height="17.0187" fill="#595959"/><path d="M381 171.188 381 261.034 343 284.313 305 261.034 305 171.188Z" fill="#09B3FF" fill-rule="evenodd"/><text fill="#FFFFFF" font-family="Calibri,Calibri_MSFontService,sans-serif" font-weight="400" font-size="53.3921" transform="matrix(1 0 0 1.0011 328.892 240)">C</text><rect x="305" y="170.187" width="76" height="17.0187" fill="#595959"/><path d="M0 0 94.7667 0 110 37.5 94.7667 75 0 75 15.2333 37.5Z" fill="#EE3041" fill-rule="evenodd" transform="matrix(-1.83697e-16 -1.0011 -1 1.839e-16 554 281.31)"/><text fill="#FFFFFF" font-family="Calibri,Calibri_MSFontService,sans-serif" font-weight="400" font-size="53.3921" transform="matrix(1 0 0 1.0011 499.548 232)">G</text><rect x="0" y="0" width="75" height="17" fill="#595959" transform="matrix(-1 1.226e-16 1.22465e-16 1.0011 554 170.187)"/><path d="M468 172.19 468 228.752C468 259.99 450.987 285.314 430 285.314 409.013 285.314 392 259.99 392 228.752L392 172.19Z" fill="#3F762B" fill-rule="evenodd"/><text fill="#FFFFFF" font-family="Calibri,Calibri_MSFontService,sans-serif" font-weight="400" font-size="53.3921" transform="matrix(1 0 0 1.0011 412.798 239)">U</text><rect x="392" y="171.189" width="76" height="17.0187" fill="#595959"/><path d="M640 191.044 640 285.314C640 274.901 623.211 266.46 602.5 266.46 581.789 266.46 565 274.901 565 285.314L565 191.044C565 180.631 581.789 172.19 602.5 172.19 623.211 172.19 640 180.631 640 191.044Z" fill="#7030A0" fill-rule="evenodd"/><text fill="#FFFFFF" font-family="Calibri,Calibri_MSFontService,sans-serif" font-weight="400" font-size="53.3921" transform="matrix(1 0 0 1.0011 586.882 232)">A</text><rect x="565" y="171.189" width="75" height="17.0187" fill="#595959"/><path d="M725 172.19 725 262.341 687.5 285.314 650 262.341 650 172.19Z" fill="#09B3FF" fill-rule="evenodd"/><text fill="#FFFFFF" font-family="Calibri,Calibri_MSFontService,sans-serif" font-weight="400" font-size="53.3921" transform="matrix(1 0 0 1.0011 673.169 241)">C</text><rect x="650" y="171.189" width="75" height="17.0187" fill="#595959"/><path d="M813 172.19 813 228.752C813 259.99 795.987 285.314 775 285.314 754.013 285.314 737 259.99 737 228.752L737 172.19Z" fill="#3F762B" fill-rule="evenodd"/><text fill="#FFFFFF" font-family="Calibri,Calibri_MSFontService,sans-serif" font-weight="400" font-size="53.3921" transform="matrix(1 0 0 1.0011 757.631 238)">U</text><rect x="737" y="171.189" width="76" height="17.0187" fill="#595959"/><path d="M0 0 94.7667 0 110 37.5 94.7667 75 0 75 15.2333 37.5Z" fill="#EE3041" fill-rule="evenodd" transform="matrix(-1.83697e-16 -1.0011 -1 1.839e-16 899 281.31)"/><text fill="#FFFFFF" font-family="Calibri,Calibri_MSFontService,sans-serif" font-weight="400" font-size="53.3921" transform="matrix(1 0 0 1.0011 844.734 232)">G</text><rect x="0" y="0" width="75" height="16" fill="#595959" transform="matrix(-1 1.226e-16 1.22465e-16 1.0011 899 170.187)"/><path d="M986 191.044 986 285.314C986 274.901 969.211 266.46 948.5 266.46 927.789 266.46 911 274.901 911 285.314L911 191.044C911 180.631 927.789 172.19 948.5 172.19 969.211 172.19 986 180.631 986 191.044Z" fill="#7030A0" fill-rule="evenodd"/><text fill="#FFFFFF" font-family="Calibri,Calibri_MSFontService,sans-serif" font-weight="400" font-size="53.3921" transform="matrix(1 0 0 1.0011 932.894 232)">A</text><rect x="911" y="171.189" width="75" height="17.0187" fill="#595959"/><path d="M1072 172.19 1072 262.341 1034.5 285.314 997 262.341 997 172.19Z" fill="#09B3FF" fill-rule="evenodd"/><text fill="#FFFFFF" font-family="Calibri,Calibri_MSFontService,sans-serif" font-weight="400" font-size="53.3921" transform="matrix(1 0 0 1.0011 1020.25 241)">C</text><rect x="997" y="171.189" width="75" height="17.0187" fill="#595959"/><path d="M1157 172.19 1157 228.752C1157 259.99 1140.21 285.314 1119.5 285.314 1098.79 285.314 1082 259.99 1082 228.752L1082 172.19Z" fill="#3F762B" fill-rule="evenodd"/><text fill="#FFFFFF" font-family="Calibri,Calibri_MSFontService,sans-serif" font-weight="400" font-size="53.3921" transform="matrix(1 0 0 1.0011 1102.4 238)">U</text><rect x="1082" y="171.189" width="75" height="17.0187" fill="#595959"/><text font-family="Calibri,Calibri_MSFontService,sans-serif" font-weight="400" font-size="53.3921" transform="matrix(1 0 0 1.0011 82.4689 205)">5’</text><text font-family="Calibri,Calibri_MSFontService,sans-serif" font-weight="400" font-size="53.3921" transform="matrix(1 0 0 1.0011 1168.68 205)">3’</text></g></svg>