<svg width="1278" height="208" xmlns="http://www.w3.org/2000/svg" xmlns:xlink="http://www.w3.org/1999/xlink" overflow="hidden"><defs><clipPath id="clip0"><rect x="0" y="0" width="1278" height="208"/></clipPath></defs><g clip-path="url(#clip0)"><rect x="0" y="0" width="1278" height="208.085" fill="#FFFFFF" fill-opacity="0"/><path d="M406.896 3.52503 676.686 3.52503 676.686 53.7041 406.896 53.7041Z" fill="#B9D0D5" fill-rule="evenodd"/><path d="M676.686 3.52503 950.741 3.52503 950.741 53.7041 676.686 53.7041Z" fill="#B9D0D5" fill-rule="evenodd"/><path d="M950.741 3.52503 1248 3.52503 1248 53.7041 950.741 53.7041Z" fill="#23373B" fill-rule="evenodd"/><path d="M24.5209 53.7041 406.896 53.7041 406.896 103.883 24.5209 103.883Z" fill="#B9D0D5" fill-rule="evenodd"/><path d="M24.5209 103.883 406.896 103.883 406.896 154.062 24.5209 154.062Z" fill="#B9D0D5" fill-rule="evenodd"/><path d="M24.5209 154.062 406.896 154.062 406.896 204.241 24.5209 204.241Z" fill="#23373B" fill-rule="evenodd"/><path d="M406.896 3.02468 406.896 53.7041" stroke="#000000" stroke-width="1.00039" stroke-linejoin="round" stroke-miterlimit="10" fill="none" fill-rule="evenodd"/><path d="M406.896 53.7041 406.896 204.742" stroke="#23373B" stroke-width="1.00039" stroke-linejoin="round" stroke-miterlimit="10" fill="none" fill-rule="evenodd"/><path d="M676.686 3.02468 676.686 204.742" stroke="#23373B" stroke-width="1.00039" stroke-linejoin="round" stroke-miterlimit="10" fill="none" fill-rule="evenodd"/><path d="M950.741 3.02468 950.741 204.742" stroke="#23373B" stroke-width="1.00039" stroke-linejoin="round" stroke-miterlimit="10" fill="none" fill-rule="evenodd"/><path d="M24.0207 53.7041 406.896 53.7041" stroke="#000000" stroke-width="1.00039" stroke-linejoin="round" stroke-miterlimit="10" fill="none" fill-rule="evenodd"/><path d="M406.896 53.7041 1248.5 53.7041" stroke="#23373B" stroke-width="1.00039" stroke-linejoin="round" stroke-miterlimit="10" fill="none" fill-rule="evenodd"/><path d="M24.0207 103.883 1248.5 103.883" stroke="#23373B" stroke-width="1.00039" stroke-linejoin="round" stroke-miterlimit="10" fill="none" fill-rule="evenodd"/><path d="M24.0207 154.062 1248.5 154.062" stroke="#23373B" stroke-width="1.00039" stroke-linejoin="round" stroke-miterlimit="10" fill="none" fill-rule="evenodd"/><path d="M24.5209 53.2038 24.5209 204.742" stroke="#23373B" stroke-width="1.00039" stroke-linejoin="round" stroke-miterlimit="10" fill="none" fill-rule="evenodd"/><path d="M1248 3.02468 1248 204.742" stroke="#23373B" stroke-width="1.00039" stroke-linejoin="round" stroke-miterlimit="10" fill="none" fill-rule="evenodd"/><path d="M406.396 3.52503 1248.5 3.52503" stroke="#23373B" stroke-width="1.00039" stroke-linejoin="round" stroke-miterlimit="10" fill="none" fill-rule="evenodd"/><path d="M24.0207 204.241 1248.5 204.241" stroke="#23373B" stroke-width="1.00039" stroke-linejoin="round" stroke-miterlimit="10" fill="none" fill-rule="evenodd"/><text fill="#FFFFFF" font-family="Calibri,Calibri_MSFontService,sans-serif" font-weight="400" font-size="32.0257" transform="matrix(1 0 0 1.00041 1068.06 41)">Total</text><text font-family="Calibri,Calibri_MSFontService,sans-serif" font-weight="400" font-size="32.0257" transform="matrix(1 0 0 1.00041 724.512 41)">Sen función A</text><text font-family="Calibri,Calibri_MSFontService,sans-serif" font-weight="400" font-size="32.0257" transform="matrix(1 0 0 1.00041 451.005 41)">Con función A</text><text font-family="Calibri,Calibri_MSFontService,sans-serif" font-weight="400" font-size="32.0257" transform="matrix(1 0 0 1.00041 1080.2 91)">n</text><text font-family="Calibri,Calibri_MSFontService,sans-serif" font-weight="400" font-size="21.3504" transform="matrix(1 0 0 1.00041 1097.04 98)">1+</text><text font-family="Calibri,Calibri_MSFontService,sans-serif" font-weight="400" font-size="32.0257" transform="matrix(1 0 0 1.00041 794.456 91)">n</text><text font-family="Calibri,Calibri_MSFontService,sans-serif" font-weight="400" font-size="21.3504" transform="matrix(1 0 0 1.00041 811.296 98)">12</text><text font-family="Calibri,Calibri_MSFontService,sans-serif" font-weight="400" font-size="32.0257" transform="matrix(1 0 0 1.00041 522.533 92)">n</text><text font-family="Calibri,Calibri_MSFontService,sans-serif" font-weight="400" font-size="21.3504" transform="matrix(1 0 0 1.00041 539.373 99)">11</text><text font-family="Calibri,Calibri_MSFontService,sans-serif" font-weight="400" font-size="32.0257" transform="matrix(1 0 0 1.00041 63.4155 92)">Moléculas significativas</text><text font-family="Calibri,Calibri_MSFontService,sans-serif" font-weight="400" font-size="32.0257" transform="matrix(1 0 0 1.00041 1080.2 142)">n</text><text font-family="Calibri,Calibri_MSFontService,sans-serif" font-weight="400" font-size="21.3504" transform="matrix(1 0 0 1.00041 1097.04 149)">2+</text><text font-family="Calibri,Calibri_MSFontService,sans-serif" font-weight="400" font-size="32.0257" transform="matrix(1 0 0 1.00041 794.456 142)">n</text><text font-family="Calibri,Calibri_MSFontService,sans-serif" font-weight="400" font-size="21.3504" transform="matrix(1 0 0 1.00041 811.296 149)">22</text><text font-family="Calibri,Calibri_MSFontService,sans-serif" font-weight="400" font-size="32.0257" transform="matrix(1 0 0 1.00041 522.533 142)">n</text><text font-family="Calibri,Calibri_MSFontService,sans-serif" font-weight="400" font-size="21.3504" transform="matrix(1 0 0 1.00041 539.373 149)">21</text><g><text font-family="Calibri,Calibri_MSFontService,sans-serif" font-weight="400" font-size="32.0257" transform="matrix(1 0 0 1.00041 34.5708 142)">Moléculas non</text></g><g><text font-family="Calibri,Calibri_MSFontService,sans-serif" font-weight="400" font-size="32.0257" transform="matrix(1 0 0 1.00041 232.482 142)">significativas</text></g><text font-family="Calibri,Calibri_MSFontService,sans-serif" font-weight="400" font-size="32.0257" transform="matrix(1 0 0 1.00041 1090.95 192)">n</text><text font-family="Calibri,Calibri_MSFontService,sans-serif" font-weight="400" font-size="32.0257" transform="matrix(1 0 0 1.00041 794.539 192)">n</text><text font-family="Calibri,Calibri_MSFontService,sans-serif" font-weight="400" font-size="21.3504" transform="matrix(1 0 0 1.00041 811.379 199)">+2</text><text font-family="Calibri,Calibri_MSFontService,sans-serif" font-weight="400" font-size="32.0257" transform="matrix(1 0 0 1.00041 522.617 192)">n</text><text font-family="Calibri,Calibri_MSFontService,sans-serif" font-weight="400" font-size="21.3504" transform="matrix(1 0 0 1.00041 539.457 199)">+1</text><text fill="#FFFFFF" font-family="Calibri,Calibri_MSFontService,sans-serif" font-weight="400" font-size="32.0257" transform="matrix(1 0 0 1.00041 184.399 192)">Total</text></g></svg>