<svg width="518" height="178" xmlns="http://www.w3.org/2000/svg" xmlns:xlink="http://www.w3.org/1999/xlink" overflow="hidden"><defs><clipPath id="clip0"><rect x="0" y="0" width="518" height="178"/></clipPath></defs><g clip-path="url(#clip0)"><rect x="0" y="0" width="518" height="178.277" fill="#FFFFFF" fill-opacity="0"/><path d="M5.74474 2.26861 512.422 2.26861 512.422 23.1076 5.74474 23.1076Z" fill="#B9D0D5" fill-rule="evenodd"/><path d="M5.74474 58.3737 512.422 58.3737 512.422 81.0934 5.74474 81.0934Z" fill="#B9D0D5" fill-rule="evenodd"/><path d="M260.337 22.6067 260.337 58.8746" stroke="#23373B" stroke-width="1.00032" stroke-linejoin="round" stroke-miterlimit="10" fill="none" fill-rule="evenodd"/><path d="M260.337 80.5925 260.337 176.232" stroke="#23373B" stroke-width="1.00032" stroke-linejoin="round" stroke-miterlimit="10" fill="none" fill-rule="evenodd"/><path d="M5.24463 23.1076 512.922 23.1076" stroke="#23373B" stroke-width="1.00032" stroke-linejoin="round" stroke-miterlimit="10" fill="none" fill-rule="evenodd"/><path d="M5.24463 40.7407 512.922 40.7407" stroke="#23373B" stroke-width="1.00032" stroke-linejoin="round" stroke-miterlimit="10" fill="none" fill-rule="evenodd"/><path d="M5.24463 58.3737 512.922 58.3737" stroke="#23373B" stroke-width="1.00032" stroke-linejoin="round" stroke-miterlimit="10" fill="none" fill-rule="evenodd"/><path d="M5.24463 81.0934 512.922 81.0934" stroke="#23373B" stroke-width="1.00032" stroke-linejoin="round" stroke-miterlimit="10" fill="none" fill-rule="evenodd"/><path d="M5.24463 128.412 512.922 128.412" stroke="#23373B" stroke-width="1.00032" stroke-linejoin="round" stroke-miterlimit="10" fill="none" fill-rule="evenodd"/><path d="M5.74474 1.76772 5.74474 176.232" stroke="#23373B" stroke-width="1.00032" stroke-linejoin="round" stroke-miterlimit="10" fill="none" fill-rule="evenodd"/><path d="M512.422 1.76772 512.422 176.232" stroke="#23373B" stroke-width="1.00032" stroke-linejoin="round" stroke-miterlimit="10" fill="none" fill-rule="evenodd"/><path d="M5.24463 2.26861 512.922 2.26861" stroke="#23373B" stroke-width="1.00032" stroke-linejoin="round" stroke-miterlimit="10" fill="none" fill-rule="evenodd"/><path d="M5.24463 175.731 512.922 175.731" stroke="#23373B" stroke-width="1.00032" stroke-linejoin="round" stroke-miterlimit="10" fill="none" fill-rule="evenodd"/><text font-family="Calibri,Calibri_MSFontService,sans-serif" font-weight="400" font-size="17.3659" transform="matrix(1 0 0 1.00155 244.995 18)">PCA</text><path d="M0-10 76.6667-10 76.6667 4-2.54313e-06 4Z" fill="#C0C0C0" fill-rule="evenodd" transform="matrix(1 0 0 1.00155 264.957 34.1813)"/><path d="M0-10 15.3333-10 15.3333 4-3.17891e-07 4Z" fill="#C0C0C0" fill-rule="evenodd" transform="matrix(1 0 0 1.00155 341.648 34.1813)"/><path d="M0-10 23-10 23 4 0 4Z" fill="#C0C0C0" fill-rule="evenodd" transform="matrix(1 0 0 1.00155 356.986 34.1813)"/><path d="M0-10 7.66667-10 7.66667 4-1.58946e-07 4Z" fill="#C0C0C0" fill-rule="evenodd" transform="matrix(1 0 0 1.00155 379.994 34.1813)"/><path d="M0-10 38.3333-10 38.3333 4-1.27157e-06 4Z" fill="#C0C0C0" fill-rule="evenodd" transform="matrix(1 0 0 1.00155 387.663 34.1813)"/><path d="M0-10 15.3333-10 15.3333 4-3.17891e-07 4Z" fill="#C0C0C0" fill-rule="evenodd" transform="matrix(1 0 0 1.00155 426.008 34.1813)"/><path d="M0-10 61.3333-10 61.3333 4-1.27157e-06 4Z" fill="#C0C0C0" fill-rule="evenodd" transform="matrix(1 0 0 1.00155 441.347 34.1813)"/><g><text font-family="Courier New,Courier New_MSFontService,sans-serif" font-weight="400" font-size="12.6904" transform="matrix(1 0 0 1.00155 264.957 34)">pcaMethods</text></g><text font-family="Courier New,Courier New_MSFontService,sans-serif" font-weight="400" font-size="12.6904" transform="matrix(1 0 0 1.00155 341.648 34)">::</text><text font-family="Courier New,Courier New_MSFontService,sans-serif" font-weight="400" font-size="12.6904" transform="matrix(1 0 0 1.00155 356.986 34)">pca</text><text font-family="Courier New,Courier New_MSFontService,sans-serif" font-weight="400" font-size="12.6904" transform="matrix(1 0 0 1.00155 379.994 34)"></text><text font-family="Courier New,Courier New_MSFontService,sans-serif" font-weight="400" font-size="12.6904" transform="matrix(1 0 0 1.00155 387.663 34)">stats</text><text font-family="Courier New,Courier New_MSFontService,sans-serif" font-weight="400" font-size="12.6904" transform="matrix(1 0 0 1.00155 426.008 34)">::</text><text font-family="Courier New,Courier New_MSFontService,sans-serif" font-weight="400" font-size="12.6904" transform="matrix(1 0 0 1.00155 441.347 34)">princomp</text><text font-family="Calibri,Calibri_MSFontService,sans-serif" font-weight="400" font-size="14.6942" transform="matrix(1 0 0 1.00155 17.4791 37)">Análise</text><path d="M0-10 76.6667-10 76.6667 4-2.54313e-06 4Z" fill="#C0C0C0" fill-rule="evenodd" transform="matrix(1 0 0 1.00155 264.957 51.8417)"/><g><text font-family="Courier New,Courier New_MSFontService,sans-serif" font-weight="400" font-size="12.6904" transform="matrix(1 0 0 1.00155 264.957 52)">factoextra</text></g><text font-family="Calibri,Calibri_MSFontService,sans-serif" font-weight="400" font-size="14.6942" transform="matrix(1 0 0 1.00155 17.4791 55)">Representación gráfica</text><text font-family="Calibri,Calibri_MSFontService,sans-serif" font-weight="400" font-size="17.3659" transform="matrix(1 0 0 1.00155 184.683 75)">Clustering</text><text font-family="Calibri,Calibri_MSFontService,sans-serif" font-weight="400" font-size="17.3659" transform="matrix(1 0 0 1.00155 259.327 75)">xerárquico</text><path d="M0-10 84.3333-10 84.3333 4 2.54313e-06 4Z" fill="#C0C0C0" fill-rule="evenodd" transform="matrix(1 0 0 1.00155 282.962 107.415)"/><path d="M0-10 92-10 92 4 0 4Z" fill="#C0C0C0" fill-rule="evenodd" transform="matrix(1 0 0 1.00155 282.962 122.44)"/><g><text font-family="Arial,Arial_MSFontService,sans-serif" font-weight="400" font-size="12.6904" transform="matrix(1 0 0 1.00155 264.957 107)">•</text></g><text font-family="Courier New,Courier New_MSFontService,sans-serif" font-weight="400" font-size="12.6904" transform="matrix(1 0 0 1.00155 282.962 107)">stats::dist</text><g><text font-family="Arial,Arial_MSFontService,sans-serif" font-weight="400" font-size="12.6904" transform="matrix(1 0 0 1.00155 264.957 122)">•</text></g><text font-family="Courier New,Courier New_MSFontService,sans-serif" font-weight="400" font-size="12.6904" transform="matrix(1 0 0 1.00155 282.962 122)">stats::hclus</text><text font-family="Calibri,Calibri_MSFontService,sans-serif" font-weight="400" font-size="14.6942" transform="matrix(1 0 0 1.00155 17.4791 93)">Análise</text><text font-family="Arial,Arial_MSFontService,sans-serif" font-weight="400" font-size="14.6942" transform="matrix(1 0 0 1.00155 41.4202 108)">•</text><text font-family="Calibri,Calibri_MSFontService,sans-serif" font-weight="400" font-size="14.6942" transform="matrix(1 0 0 1.00155 59.4259 108)">Estimación de distancias</text><text font-family="Arial,Arial_MSFontService,sans-serif" font-weight="400" font-size="14.6942" transform="matrix(1 0 0 1.00155 41.4202 122)">•</text><text font-family="Calibri,Calibri_MSFontService,sans-serif" font-weight="400" font-size="14.6942" transform="matrix(1 0 0 1.00155 59.4259 122)">Aglomeración</text><path d="M0-10 38.3333-10 38.3333 4-1.27157e-06 4Z" fill="#C0C0C0" fill-rule="evenodd" transform="matrix(1 0 0 1.00155 282.962 154.807)"/><path d="M0-10 15.3333-10 15.3333 4-3.17891e-07 4Z" fill="#C0C0C0" fill-rule="evenodd" transform="matrix(1 0 0 1.00155 321.308 154.807)"/><path d="M0-10 53.6667-10 53.6667 4 1.27157e-06 4Z" fill="#C0C0C0" fill-rule="evenodd" transform="matrix(1 0 0 1.00155 336.646 154.807)"/><path d="M0-10 15.3333-10 15.3333 4-3.17891e-07 4Z" fill="#C0C0C0" fill-rule="evenodd" transform="matrix(1 0 0 1.00155 390.33 154.807)"/><path d="M0-10 69-10 69 4 0 4Z" fill="#C0C0C0" fill-rule="evenodd" transform="matrix(1 0 0 1.00155 405.669 154.807)"/><path d="M0-10 76.6667-10 76.6667 4-2.54313e-06 4Z" fill="#C0C0C0" fill-rule="evenodd" transform="matrix(1 0 0 1.00155 282.962 169.832)"/><path d="M0-10 7.66667-10 7.66667 4-1.58946e-07 4Z" fill="#C0C0C0" fill-rule="evenodd" transform="matrix(1 0 0 1.00155 359.654 169.832)"/><path d="M0-10 7.66667-10 7.66667 4-1.58946e-07 4Z" fill="#C0C0C0" fill-rule="evenodd" transform="matrix(1 0 0 1.00155 367.323 169.832)"/><path d="M0-10 61.3333-10 61.3333 4-1.27157e-06 4Z" fill="#C0C0C0" fill-rule="evenodd" transform="matrix(1 0 0 1.00155 374.992 169.832)"/><g><text font-family="Arial,Arial_MSFontService,sans-serif" font-weight="400" font-size="12.6904" transform="matrix(1 0 0 1.00155 264.957 155)">•</text></g><text font-family="Courier New,Courier New_MSFontService,sans-serif" font-weight="400" font-size="12.6904" transform="matrix(1 0 0 1.00155 282.962 155)">stats</text><text font-family="Courier New,Courier New_MSFontService,sans-serif" font-weight="400" font-size="12.6904" transform="matrix(1 0 0 1.00155 321.308 155)">::</text><text font-family="Courier New,Courier New_MSFontService,sans-serif" font-weight="400" font-size="12.6904" transform="matrix(1 0 0 1.00155 336.646 155)">heatmap</text><text font-family="Courier New,Courier New_MSFontService,sans-serif" font-weight="400" font-size="12.6904" transform="matrix(1 0 0 1.00155 390.33 155)">,</text><text font-family="Courier New,Courier New_MSFontService,sans-serif" font-weight="400" font-size="12.6904" transform="matrix(1 0 0 1.00155 405.669 155)">Heatmaply</text><g><text font-family="Arial,Arial_MSFontService,sans-serif" font-weight="400" font-size="12.6904" transform="matrix(1 0 0 1.00155 264.957 170)">•</text></g><text font-family="Courier New,Courier New_MSFontService,sans-serif" font-weight="400" font-size="12.6904" transform="matrix(1 0 0 1.00155 282.962 170)">Dendextend</text><text font-family="Courier New,Courier New_MSFontService,sans-serif" font-weight="400" font-size="12.6904" transform="matrix(1 0 0 1.00155 359.654 170)">,</text><text font-family="Courier New,Courier New_MSFontService,sans-serif" font-weight="400" font-size="12.6904" transform="matrix(1 0 0 1.00155 367.323 170)"></text><text font-family="Courier New,Courier New_MSFontService,sans-serif" font-weight="400" font-size="12.6904" transform="matrix(1 0 0 1.00155 374.992 170)">circlize</text><text font-family="Calibri,Calibri_MSFontService,sans-serif" font-weight="400" font-size="14.6942" transform="matrix(1 0 0 1.00155 17.4791 141)">Representación gráfica:</text><text font-family="Arial,Arial_MSFontService,sans-serif" font-weight="400" font-size="14.6942" transform="matrix(1 0 0 1.00155 41.4202 156)">•</text><text font-family="Calibri,Calibri_MSFontService,sans-serif" font-weight="400" font-size="14.6942" transform="matrix(1 0 0 1.00155 59.4259 156)">Hetmaps</text><text font-family="Arial,Arial_MSFontService,sans-serif" font-weight="400" font-size="14.6942" transform="matrix(1 0 0 1.00155 41.4202 170)">•</text><text font-family="Calibri,Calibri_MSFontService,sans-serif" font-weight="400" font-size="14.6942" transform="matrix(1 0 0 1.00155 59.4259 170)">Dendrogramas</text></g></svg>