<svg width="518" height="132" xmlns="http://www.w3.org/2000/svg" xmlns:xlink="http://www.w3.org/1999/xlink" overflow="hidden"><defs><clipPath id="clip0"><rect x="0" y="0" width="518" height="132"/></clipPath></defs><g clip-path="url(#clip0)"><rect x="0" y="0" width="518" height="131.625" fill="#FFFFFF" fill-opacity="0"/><path d="M3.33724 7.68191 509.957 7.68191 509.957 30.302 3.33724 30.302Z" fill="#B9D0D5" fill-rule="evenodd"/><path d="M256.647 29.8033 256.647 124.817" stroke="#23373B" stroke-width="1.00032" stroke-linejoin="round" stroke-miterlimit="10" fill="none" fill-rule="evenodd"/><path d="M2.83713 30.302 510.457 30.302" stroke="#23373B" stroke-width="1.00032" stroke-linejoin="round" stroke-miterlimit="10" fill="none" fill-rule="evenodd"/><path d="M2.83713 77.31 510.457 77.31" stroke="#23373B" stroke-width="1.00032" stroke-linejoin="round" stroke-miterlimit="10" fill="none" fill-rule="evenodd"/><path d="M3.33724 7.18323 3.33724 124.817" stroke="#23373B" stroke-width="1.00032" stroke-linejoin="round" stroke-miterlimit="10" fill="none" fill-rule="evenodd"/><path d="M509.957 7.18323 509.957 124.817" stroke="#23373B" stroke-width="1.00032" stroke-linejoin="round" stroke-miterlimit="10" fill="none" fill-rule="evenodd"/><path d="M2.83713 7.68191 510.457 7.68191" stroke="#23373B" stroke-width="1.00032" stroke-linejoin="round" stroke-miterlimit="10" fill="none" fill-rule="evenodd"/><path d="M2.83713 124.318 510.457 124.318" stroke="#23373B" stroke-width="1.00032" stroke-linejoin="round" stroke-miterlimit="10" fill="none" fill-rule="evenodd"/><text font-family="Calibri,Calibri_MSFontService,sans-serif" font-weight="400" font-size="17.2897" transform="matrix(1 0 0 0.99716 182.247 25)">Clustering</text><text font-family="Calibri,Calibri_MSFontService,sans-serif" font-weight="400" font-size="17.2897" transform="matrix(1 0 0 0.99716 256.891 25)">xerárquico</text><path d="M0-9.9716 78.6095-9.9716 78.6095 3.98864 2.53591e-06 3.98864Z" fill="#E7E8E2" fill-rule="evenodd" transform="matrix(1.00285 0 0 1 279.273 49.6302)"/><path d="M0-9.9716 85.7558-9.9716 85.7558 3.98864 0 3.98864Z" fill="#E7E8E2" fill-rule="evenodd" transform="matrix(1.00285 0 0 1 279.273 64.5876)"/><g><text font-family="Arial,Arial_MSFontService,sans-serif" font-weight="400" font-size="11.9698" transform="matrix(1 0 0 0.99716 261.267 50)">•</text></g><text font-family="Courier New,Courier New_MSFontService,sans-serif" font-weight="400" font-size="11.9698" transform="matrix(1 0 0 0.99716 279.273 50)">stats::dist</text><g><text font-family="Arial,Arial_MSFontService,sans-serif" font-weight="400" font-size="11.9698" transform="matrix(1 0 0 0.99716 261.267 65)">•</text></g><text font-family="Courier New,Courier New_MSFontService,sans-serif" font-weight="400" font-size="11.9698" transform="matrix(1 0 0 0.99716 279.273 65)">stats::hclus</text><text font-family="Arial,Arial_MSFontService,sans-serif" font-weight="400" font-size="14.6297" transform="matrix(1 0 0 0.99716 15.0716 50)">•</text><text font-family="Calibri,Calibri_MSFontService,sans-serif" font-weight="400" font-size="14.6297" transform="matrix(1 0 0 0.99716 33.0774 50)">Estimación de distancias</text><text font-family="Arial,Arial_MSFontService,sans-serif" font-weight="400" font-size="14.6297" transform="matrix(1 0 0 0.99716 15.0716 64)">•</text><text font-family="Calibri,Calibri_MSFontService,sans-serif" font-weight="400" font-size="14.6297" transform="matrix(1 0 0 0.99716 33.0774 64)">Aglomeración</text><path d="M0-9.9716 114.341-9.9716 114.341 3.98864-2.53591e-06 3.98864Z" fill="#E7E8E2" fill-rule="evenodd" transform="matrix(1.00285 0 0 1 279.273 96.5047)"/><path d="M0-9.9716 64.3168-9.9716 64.3168 3.98864 0 3.98864Z" fill="#E7E8E2" fill-rule="evenodd" transform="matrix(1.00285 0 0 1 393.976 96.5047)"/><path d="M0-9.9716 71.4631-9.9716 71.4631 3.98864-2.53591e-06 3.98864Z" fill="#E7E8E2" fill-rule="evenodd" transform="matrix(1.00285 0 0 1 279.273 111.462)"/><path d="M0-9.9716 14.2926-9.9716 14.2926 3.98864-3.16989e-07 3.98864Z" fill="#E7E8E2" fill-rule="evenodd" transform="matrix(1.00285 0 0 1 350.963 111.462)"/><path d="M0-9.9716 57.1705-9.9716 57.1705 3.98864-1.26795e-06 3.98864Z" fill="#E7E8E2" fill-rule="evenodd" transform="matrix(1.00285 0 0 1 365.301 111.462)"/><g><text font-family="Arial,Arial_MSFontService,sans-serif" font-weight="400" font-size="11.9698" transform="matrix(1 0 0 0.99716 261.267 97)">•</text></g><text font-family="Courier New,Courier New_MSFontService,sans-serif" font-weight="400" font-size="11.9698" transform="matrix(1 0 0 0.99716 279.273 97)">stats::heatmap,</text><text font-family="Courier New,Courier New_MSFontService,sans-serif" font-weight="400" font-size="11.9698" transform="matrix(1 0 0 0.99716 393.976 97)">Heatmaply</text><g><text font-family="Arial,Arial_MSFontService,sans-serif" font-weight="400" font-size="11.9698" transform="matrix(1 0 0 0.99716 261.267 111)">•</text></g><text font-family="Courier New,Courier New_MSFontService,sans-serif" font-weight="400" font-size="11.9698" transform="matrix(1 0 0 0.99716 279.273 111)">Dendextend</text><text font-family="Courier New,Courier New_MSFontService,sans-serif" font-weight="400" font-size="11.9698" transform="matrix(1 0 0 0.99716 350.963 111)">,</text><text font-family="Courier New,Courier New_MSFontService,sans-serif" font-weight="400" font-size="11.9698" transform="matrix(1 0 0 0.99716 365.301 111)">circlize</text><text font-family="Arial,Arial_MSFontService,sans-serif" font-weight="400" font-size="14.6297" transform="matrix(1 0 0 0.99716 15.0716 96)">•</text><text font-family="Calibri,Calibri_MSFontService,sans-serif" font-weight="400" font-size="14.6297" transform="matrix(1 0 0 0.99716 33.9444 96)">Heatmaps</text><text font-family="Arial,Arial_MSFontService,sans-serif" font-weight="400" font-size="14.6297" transform="matrix(1 0 0 0.99716 15.0716 111)">•</text><text font-family="Calibri,Calibri_MSFontService,sans-serif" font-weight="400" font-size="14.6297" transform="matrix(1 0 0 0.99716 33.9444 111)">Dendrogramas</text></g></svg>