<svg width="518" height="132" xmlns="http://www.w3.org/2000/svg" xmlns:xlink="http://www.w3.org/1999/xlink" overflow="hidden"><defs><clipPath id="clip0"><rect x="0" y="0" width="518" height="132"/></clipPath></defs><g clip-path="url(#clip0)"><rect x="0" y="0" width="518" height="131.625" fill="#FFFFFF" fill-opacity="0"/><path d="M5.74484 31.2934 512.422 31.2934 512.422 52.041 5.74484 52.041Z" fill="#B9D0D5" fill-rule="evenodd"/><path d="M260.337 51.5423 260.337 102.731" stroke="#23373B" stroke-width="1.00032" stroke-linejoin="round" stroke-miterlimit="10" fill="none" fill-rule="evenodd"/><path d="M5.24473 52.041 512.922 52.041" stroke="#23373B" stroke-width="1.00032" stroke-linejoin="round" stroke-miterlimit="10" fill="none" fill-rule="evenodd"/><path d="M5.24473 77.1367 512.922 77.1367" stroke="#23373B" stroke-width="1.00032" stroke-linejoin="round" stroke-miterlimit="10" fill="none" fill-rule="evenodd"/><path d="M5.74484 30.7947 5.74484 102.731" stroke="#23373B" stroke-width="1.00032" stroke-linejoin="round" stroke-miterlimit="10" fill="none" fill-rule="evenodd"/><path d="M512.422 30.7947 512.422 102.731" stroke="#23373B" stroke-width="1.00032" stroke-linejoin="round" stroke-miterlimit="10" fill="none" fill-rule="evenodd"/><path d="M5.24473 31.2934 512.922 31.2934" stroke="#23373B" stroke-width="1.00032" stroke-linejoin="round" stroke-miterlimit="10" fill="none" fill-rule="evenodd"/><path d="M5.24473 102.232 512.922 102.232" stroke="#23373B" stroke-width="1.00032" stroke-linejoin="round" stroke-miterlimit="10" fill="none" fill-rule="evenodd"/><text font-family="Calibri,Calibri_MSFontService,sans-serif" font-weight="400" font-size="17.2897" transform="matrix(1 0 0 0.99716 244.996 47)">PCA</text><path d="M0-9.9716 71.4631-9.9716 71.4631 3.98864-2.53591e-06 3.98864Z" fill="#E7E8E2" fill-rule="evenodd" transform="matrix(1.00285 0 0 1 264.957 68.1851)"/><path d="M0-9.9716 14.2926-9.9716 14.2926 3.98864-3.16989e-07 3.98864Z" fill="#E7E8E2" fill-rule="evenodd" transform="matrix(1.00285 0 0 1 336.646 68.1851)"/><path d="M0-9.9716 21.4389-9.9716 21.4389 3.98864 0 3.98864Z" fill="#E7E8E2" fill-rule="evenodd" transform="matrix(1.00285 0 0 1 350.984 68.1851)"/><path d="M0-9.9716 7.14631-9.9716 7.14631 3.98864-1.58494e-07 3.98864Z" fill="#E7E8E2" fill-rule="evenodd" transform="matrix(1.00285 0 0 1 372.491 68.1851)"/><path d="M0-9.9716 35.7316-9.9716 35.7316 3.98864-1.26795e-06 3.98864Z" fill="#E7E8E2" fill-rule="evenodd" transform="matrix(1.00285 0 0 1 379.66 68.1851)"/><path d="M0-9.9716 14.2926-9.9716 14.2926 3.98864-3.16989e-07 3.98864Z" fill="#E7E8E2" fill-rule="evenodd" transform="matrix(1.00285 0 0 1 415.505 68.1851)"/><path d="M0-9.9716 57.1705-9.9716 57.1705 3.98864-1.26795e-06 3.98864Z" fill="#E7E8E2" fill-rule="evenodd" transform="matrix(1.00285 0 0 1 429.843 68.1851)"/><g><text font-family="Courier New,Courier New_MSFontService,sans-serif" font-weight="400" font-size="11.9698" transform="matrix(1 0 0 0.99716 264.957 68)">pcaMethods</text></g><text font-family="Courier New,Courier New_MSFontService,sans-serif" font-weight="400" font-size="11.9698" transform="matrix(1 0 0 0.99716 336.646 68)">::</text><text font-family="Courier New,Courier New_MSFontService,sans-serif" font-weight="400" font-size="11.9698" transform="matrix(1 0 0 0.99716 350.984 68)">pca</text><text font-family="Courier New,Courier New_MSFontService,sans-serif" font-weight="400" font-size="11.9698" transform="matrix(1 0 0 0.99716 372.491 68)"></text><text font-family="Courier New,Courier New_MSFontService,sans-serif" font-weight="400" font-size="11.9698" transform="matrix(1 0 0 0.99716 379.66 68)">stats</text><text font-family="Courier New,Courier New_MSFontService,sans-serif" font-weight="400" font-size="11.9698" transform="matrix(1 0 0 0.99716 415.505 68)">::</text><text font-family="Courier New,Courier New_MSFontService,sans-serif" font-weight="400" font-size="11.9698" transform="matrix(1 0 0 0.99716 429.843 68)">princomp</text><text font-family="Calibri,Calibri_MSFontService,sans-serif" font-weight="400" font-size="14.6297" transform="matrix(1 0 0 0.99716 17.4792 70)">Análise</text><path d="M0-9.9716 71.4631-9.9716 71.4631 3.98864-2.53591e-06 3.98864Z" fill="#E7E8E2" fill-rule="evenodd" transform="matrix(1.00285 0 0 1 264.957 93.2095)"/><g><text font-family="Courier New,Courier New_MSFontService,sans-serif" font-weight="400" font-size="11.9698" transform="matrix(1 0 0 0.99716 264.957 93)">factoextra</text></g><text font-family="Calibri,Calibri_MSFontService,sans-serif" font-weight="400" font-size="14.6297" transform="matrix(1 0 0 0.99716 17.4792 95)">Representación gráfica</text></g></svg>