<svg width="518" height="340" xmlns="http://www.w3.org/2000/svg" xmlns:xlink="http://www.w3.org/1999/xlink" overflow="hidden"><defs><clipPath id="clip0"><rect x="0" y="0" width="518" height="340"/></clipPath></defs><g clip-path="url(#clip0)"><rect x="0" y="0" width="518" height="339.724" fill="#FFFFFF" fill-opacity="0"/><path d="M5.66135 5.92308 260.253 5.92308 260.253 39.6451 5.66135 39.6451Z" fill="#23373B" fill-rule="evenodd"/><path d="M260.253 5.92308 512.339 5.92308 512.339 39.6451 260.253 39.6451Z" fill="#23373B" fill-rule="evenodd"/><path d="M5.66135 39.6451 512.339 39.6451 512.339 71.768 5.66135 71.768Z" fill="#B9D0D5" fill-rule="evenodd"/><path d="M5.66135 172.934 512.339 172.934 512.339 205.057 5.66135 205.057Z" fill="#B9D0D5" fill-rule="evenodd"/><path d="M5.66135 248.941 512.339 248.941 512.339 281.064 5.66135 281.064Z" fill="#B9D0D5" fill-rule="evenodd"/><path d="M260.253 5.42338 260.253 40.1448" stroke="#23373B" stroke-width="1.00032" stroke-linejoin="round" stroke-miterlimit="10" fill="none" fill-rule="evenodd"/><path d="M260.253 71.2683 260.253 173.434" stroke="#23373B" stroke-width="1.00032" stroke-linejoin="round" stroke-miterlimit="10" fill="none" fill-rule="evenodd"/><path d="M260.253 204.557 260.253 249.441" stroke="#23373B" stroke-width="1.00032" stroke-linejoin="round" stroke-miterlimit="10" fill="none" fill-rule="evenodd"/><path d="M260.253 280.564 260.253 324.881" stroke="#23373B" stroke-width="1.00032" stroke-linejoin="round" stroke-miterlimit="10" fill="none" fill-rule="evenodd"/><path d="M5.16124 39.6451 512.839 39.6451" stroke="#23373B" stroke-width="1.00032" stroke-linejoin="round" stroke-miterlimit="10" fill="none" fill-rule="evenodd"/><path d="M5.16124 71.768 512.839 71.768" stroke="#23373B" stroke-width="1.00032" stroke-linejoin="round" stroke-miterlimit="10" fill="none" fill-rule="evenodd"/><path d="M5.16124 100.692 512.839 100.692" stroke="#23373B" stroke-width="1.00032" stroke-linejoin="round" stroke-miterlimit="10" fill="none" fill-rule="evenodd"/><path d="M5.16124 144.01 512.839 144.01" stroke="#23373B" stroke-width="1.00032" stroke-linejoin="round" stroke-miterlimit="10" fill="none" fill-rule="evenodd"/><path d="M5.16124 172.934 512.839 172.934" stroke="#23373B" stroke-width="1.00032" stroke-linejoin="round" stroke-miterlimit="10" fill="none" fill-rule="evenodd"/><path d="M5.16124 205.057 512.839 205.057" stroke="#23373B" stroke-width="1.00032" stroke-linejoin="round" stroke-miterlimit="10" fill="none" fill-rule="evenodd"/><path d="M5.16124 248.941 512.839 248.941" stroke="#23373B" stroke-width="1.00032" stroke-linejoin="round" stroke-miterlimit="10" fill="none" fill-rule="evenodd"/><path d="M5.16124 281.064 512.839 281.064" stroke="#23373B" stroke-width="1.00032" stroke-linejoin="round" stroke-miterlimit="10" fill="none" fill-rule="evenodd"/><path d="M5.66135 5.42338 5.66135 324.881" stroke="#23373B" stroke-width="1.00032" stroke-linejoin="round" stroke-miterlimit="10" fill="none" fill-rule="evenodd"/><path d="M512.339 5.42338 512.339 324.881" stroke="#23373B" stroke-width="1.00032" stroke-linejoin="round" stroke-miterlimit="10" fill="none" fill-rule="evenodd"/><path d="M5.16124 5.92308 512.839 5.92308" stroke="#23373B" stroke-width="1.00032" stroke-linejoin="round" stroke-miterlimit="10" fill="none" fill-rule="evenodd"/><path d="M5.16124 324.381 512.839 324.381" stroke="#23373B" stroke-width="1.00032" stroke-linejoin="round" stroke-miterlimit="10" fill="none" fill-rule="evenodd"/><text fill="#FFFFFF" font-family="Calibri Light,Calibri Light_MSFontService,sans-serif" font-weight="300" font-size="18.6575" transform="matrix(1 0 0 0.999188 344.876 30)">Paquetes R</text><text fill="#FFFFFF" font-family="Calibri Light,Calibri Light_MSFontService,sans-serif" font-weight="300" font-size="18.6575" transform="matrix(1 0 0 0.999188 102.954 30)">Método</text><text font-family="Calibri Light,Calibri Light_MSFontService,sans-serif" font-weight="300" font-size="17.3248" transform="matrix(1 0 0 0.999188 209.571 63)">Comparacións</text><path d="M0-10.9911 39.9675-10.9911 39.9675 3.99675 0 3.99675Z" fill="#E7E8E2" fill-rule="evenodd" transform="matrix(1.00081 0 0 1 264.034 91.2433)"/><path d="M0-10.9911 15.987-10.9911 15.987 3.99675 0 3.99675Z" fill="#E7E8E2" fill-rule="evenodd" transform="matrix(1.00081 0 0 1 304.047 91.2433)"/><path d="M0-10.9911 47.961-10.9911 47.961 3.99675 0 3.99675Z" fill="#E7E8E2" fill-rule="evenodd" transform="matrix(1.00081 0 0 1 320.052 91.2433)"/><g><text font-family="Courier New,Courier New_MSFontService,sans-serif" font-weight="400" font-size="13.3268" transform="matrix(1 0 0 0.999188 264.034 91)">stats</text></g><text font-family="Courier New,Courier New_MSFontService,sans-serif" font-weight="400" font-size="13.3268" transform="matrix(1 0 0 0.999188 304.047 91)">::</text><text font-family="Courier New,Courier New_MSFontService,sans-serif" font-weight="400" font-size="13.3268" transform="matrix(1 0 0 0.999188 320.052 91)">t.test</text><g><text font-family="Calibri,Calibri_MSFontService,sans-serif" font-weight="400" font-size="14.6595" transform="matrix(1 0 0 0.999188 9.44209 93)">Test clásicos (test t, test de Welch)</text></g><path d="M0-10.9911 47.961-10.9911 47.961 3.99675 0 3.99675Z" fill="#E7E8E2" fill-rule="evenodd" transform="matrix(1.00081 0 0 1 264.034 120.144)"/><path d="M0-10.9911 39.9675-10.9911 39.9675 3.99675 0 3.99675Z" fill="#E7E8E2" fill-rule="evenodd" transform="matrix(1.00081 0 0 1 264.034 136.131)"/><g><text font-family="Courier New,Courier New_MSFontService,sans-serif" font-weight="400" font-size="13.3268" transform="matrix(1 0 0 0.999188 264.034 120)">DESeq2</text></g><g><text font-family="Courier New,Courier New_MSFontService,sans-serif" font-weight="400" font-size="13.3268" transform="matrix(1 0 0 0.999188 264.034 136)">limma</text></g><g><text font-family="Calibri,Calibri_MSFontService,sans-serif" font-weight="400" font-size="14.6595" transform="matrix(1 0 0 0.999188 9.44209 122)">Modelos</text></g><text font-family="Calibri,Calibri_MSFontService,sans-serif" font-weight="400" font-size="14.6595" transform="matrix(1 0 0 0.999188 64.6265 122)">lineais</text><path d="M0-10.9911 95.9221-10.9911 95.9221 3.99675 0 3.99675Z" fill="#E7E8E2" fill-rule="evenodd" transform="matrix(1.00081 0 0 1 264.034 164.225)"/><g><text font-family="Courier New,Courier New_MSFontService,sans-serif" font-weight="400" font-size="13.3268" transform="matrix(1 0 0 0.999188 264.034 164)">NormalyzerDE</text></g><g><text font-family="Calibri,Calibri_MSFontService,sans-serif" font-weight="400" font-size="14.6595" transform="matrix(1 0 0 0.999188 9.44209 165)">Opción de ambos con</text></g><text font-family="Calibri,Calibri_MSFontService,sans-serif" font-weight="400" font-size="14.6595" transform="matrix(1 0 0 0.999188 141.151 165)">correcións</text><text font-family="Calibri Light,Calibri Light_MSFontService,sans-serif" font-weight="300" font-size="17.3248" transform="matrix(1 0 0 0.999188 187.73 196)">Correción</text><text font-family="Calibri Light,Calibri Light_MSFontService,sans-serif" font-weight="300" font-size="17.3248" transform="matrix(1 0 0 0.999188 259.5 196)">do p</text><text font-family="Calibri Light,Calibri Light_MSFontService,sans-serif" font-weight="300" font-size="17.3248" transform="matrix(1 0 0 0.999188 290.51 196)">-</text><text font-family="Calibri Light,Calibri Light_MSFontService,sans-serif" font-weight="300" font-size="17.3248" transform="matrix(1 0 0 0.999188 295.845 196)">valor</text><path d="M0-10.9911 39.9675-10.9911 39.9675 3.99675 0 3.99675Z" fill="#E7E8E2" fill-rule="evenodd" transform="matrix(1.00081 0 0 1 264.034 224.707)"/><path d="M0-10.9911 15.987-10.9911 15.987 3.99675 0 3.99675Z" fill="#E7E8E2" fill-rule="evenodd" transform="matrix(1.00081 0 0 1 304.047 224.707)"/><path d="M0-10.9911 63.9481-10.9911 63.9481 3.99675 0 3.99675Z" fill="#E7E8E2" fill-rule="evenodd" transform="matrix(1.00081 0 0 1 320.052 224.707)"/><path d="M0-10.9911 39.9675-10.9911 39.9675 3.99675 0 3.99675Z" fill="#E7E8E2" fill-rule="evenodd" transform="matrix(1.00081 0 0 1 264.034 240.694)"/><path d="M0-10.9911 15.987-10.9911 15.987 3.99675 0 3.99675Z" fill="#E7E8E2" fill-rule="evenodd" transform="matrix(1.00081 0 0 1 304.047 240.694)"/><path d="M0-10.9911 127.896-10.9911 127.896 3.99675 0 3.99675Z" fill="#E7E8E2" fill-rule="evenodd" transform="matrix(1.00081 0 0 1 320.052 240.694)"/><g><text font-family="Courier New,Courier New_MSFontService,sans-serif" font-weight="400" font-size="13.3268" transform="matrix(1 0 0 0.999188 264.034 225)">stats</text></g><text font-family="Courier New,Courier New_MSFontService,sans-serif" font-weight="400" font-size="13.3268" transform="matrix(1 0 0 0.999188 304.047 225)">::</text><text font-family="Courier New,Courier New_MSFontService,sans-serif" font-weight="400" font-size="13.3268" transform="matrix(1 0 0 0.999188 320.052 225)">p.adjust</text><g><text font-family="Courier New,Courier New_MSFontService,sans-serif" font-weight="400" font-size="13.3268" transform="matrix(1 0 0 0.999188 264.034 241)">stats</text></g><text font-family="Courier New,Courier New_MSFontService,sans-serif" font-weight="400" font-size="13.3268" transform="matrix(1 0 0 0.999188 304.047 241)">::</text><text font-family="Courier New,Courier New_MSFontService,sans-serif" font-weight="400" font-size="13.3268" transform="matrix(1 0 0 0.999188 320.052 241)">p.adjust.methods</text><g><text font-family="Calibri,Calibri_MSFontService,sans-serif" font-weight="400" font-size="14.6595" transform="matrix(1 0 0 0.999188 9.44209 234)">Bonferroni,</text></g><text font-family="Calibri,Calibri_MSFontService,sans-serif" font-weight="400" font-size="14.6595" transform="matrix(1 0 0 0.999188 80.6317 234)">Benjamin</text><text font-family="Calibri,Calibri_MSFontService,sans-serif" font-weight="400" font-size="14.6595" transform="matrix(1 0 0 0.999188 136.816 234)">-</text><text font-family="Calibri,Calibri_MSFontService,sans-serif" font-weight="400" font-size="14.6595" transform="matrix(1 0 0 0.999188 141.318 234)">Hochberg</text><text font-family="Calibri,Calibri_MSFontService,sans-serif" font-weight="400" font-size="14.6595" transform="matrix(1 0 0 0.999188 199.003 234)">, Holm…</text><text font-family="Calibri Light,Calibri Light_MSFontService,sans-serif" font-weight="300" font-size="17.3248" transform="matrix(1 0 0 0.999188 180.151 272)">Representación gráfica</text><path d="M0-10.9911 55.9546-10.9911 55.9546 3.99675 0 3.99675Z" fill="#E7E8E2" fill-rule="evenodd" transform="matrix(1.00081 0 0 1 264.034 300.37)"/><path d="M0-10.9911 111.909-10.9911 111.909 3.99675 0 3.99675Z" fill="#E7E8E2" fill-rule="evenodd" transform="matrix(1.00081 0 0 1 264.034 316.357)"/><g><text font-family="Courier New,Courier New_MSFontService,sans-serif" font-weight="400" font-size="13.3268" transform="matrix(1 0 0 0.999188 264.034 300)">ggplot2</text></g><g><text font-family="Courier New,Courier New_MSFontService,sans-serif" font-weight="400" font-size="13.3268" transform="matrix(1 0 0 0.999188 264.034 316)">EnhanceVolcano</text></g><g><text font-family="Calibri,Calibri_MSFontService,sans-serif" font-weight="400" font-size="14.6595" transform="matrix(1 0 0 0.999188 9.44209 302)">Gráfico de volcán (</text></g><text font-family="Calibri,Calibri_MSFontService,sans-serif" font-weight="400" font-size="14.6595" transform="matrix(1 0 0 0.999188 120.645 302)">volcano</text><text font-family="Calibri,Calibri_MSFontService,sans-serif" font-weight="400" font-size="14.6595" transform="matrix(1 0 0 0.999188 170.16 302)">plot</text><text font-family="Calibri,Calibri_MSFontService,sans-serif" font-weight="400" font-size="14.6595" transform="matrix(1 0 0 0.999188 193.668 302)">)</text></g></svg>